solid OpenSCAD_Model
  facet normal -1 0 0
    outer loop
      vertex 0 1 0
      vertex 0 1 10
      vertex 0 30 0
    endloop
  endfacet
  facet normal -1 0 0
    outer loop
      vertex 0 30 0
      vertex 0 1 10
      vertex 0 30 10
    endloop
  endfacet
  facet normal -0.951056 -0.309017 0
    outer loop
      vertex 0 1 0
      vertex 0.190983 0.412215 0
      vertex 0 1 10
    endloop
  endfacet
  facet normal -0.951056 -0.309017 0
    outer loop
      vertex 0 1 10
      vertex 0.190983 0.412215 0
      vertex 0.190983 0.412215 10
    endloop
  endfacet
  facet normal 0 0 -1
    outer loop
      vertex 0 1 0
      vertex 0 30 0
      vertex 0.190983 0.412215 0
    endloop
  endfacet
  facet normal 0 0 -1
    outer loop
      vertex 0.190983 0.412215 0
      vertex 0 30 0
      vertex 0.190983 30.5878 0
    endloop
  endfacet
  facet normal 0 0 -1
    outer loop
      vertex 0.190983 0.412215 0
      vertex 0.190983 30.5878 0
      vertex 0.690983 30.9511 0
    endloop
  endfacet
  facet normal 0 0 -1
    outer loop
      vertex 0.190983 0.412215 0
      vertex 0.690983 30.9511 0
      vertex 1 30.9511 0
    endloop
  endfacet
  facet normal 0 0 -1
    outer loop
      vertex 1 30.9511 0
      vertex 1 31 0
      vertex 3 31 0
    endloop
  endfacet
  facet normal 0 0 -1
    outer loop
      vertex 4 28 0
      vertex 3 31 0
      vertex 6 28 0
    endloop
  endfacet
  facet normal 0 0 -1
    outer loop
      vertex 3.69098 27.9511 0
      vertex 3 31 0
      vertex 4 28 0
    endloop
  endfacet
  facet normal 0 0 -1
    outer loop
      vertex 3 6 0
      vertex 1.19098 3.58778 0
      vertex 3 27 0
    endloop
  endfacet
  facet normal 0 0 -1
    outer loop
      vertex 25.165 2.5 0
      vertex 39.639 0.048943 0
      vertex 39.33 0.048943 0
    endloop
  endfacet
  facet normal 0 0 -1
    outer loop
      vertex 3.19098 27.5878 0
      vertex 3 31 0
      vertex 3.69098 27.9511 0
    endloop
  endfacet
  facet normal 0 0 -1
    outer loop
      vertex 1.19098 3.58778 0
      vertex 0.190983 0.412215 0
      vertex 3 27 0
    endloop
  endfacet
  facet normal 0 0 -1
    outer loop
      vertex 3 28 0
      vertex 3 31 0
      vertex 3.19098 27.5878 0
    endloop
  endfacet
  facet normal 0 0 -1
    outer loop
      vertex 25.165 2.5 0
      vertex 39.33 0 0
      vertex 25.165 0 0
    endloop
  endfacet
  facet normal 0 0 -1
    outer loop
      vertex 0.190983 0.412215 0
      vertex 3 28 0
      vertex 3 27 0
    endloop
  endfacet
  facet normal 0 0 -1
    outer loop
      vertex 36.33 28 0
      vertex 36.639 27.9511 0
      vertex 36.33 27.9511 0
    endloop
  endfacet
  facet normal 0 0 -1
    outer loop
      vertex 2.30902 3.95106 0
      vertex 3 6 0
      vertex 3.19098 5.41221 0
    endloop
  endfacet
  facet normal 0 0 -1
    outer loop
      vertex 2.30902 3.95106 0
      vertex 4 5 0
      vertex 3 3 0
    endloop
  endfacet
  facet normal 0 0 -1
    outer loop
      vertex 2.30902 3.95106 0
      vertex 4 5.04894 0
      vertex 4 5 0
    endloop
  endfacet
  facet normal 0 0 -1
    outer loop
      vertex 15.165 0 0
      vertex 0.190983 0.412215 0
      vertex 15.165 2.5 0
    endloop
  endfacet
  facet normal 0 0 -1
    outer loop
      vertex 25.165 2.5 0
      vertex 40.33 1 0
      vertex 40.139 0.412215 0
    endloop
  endfacet
  facet normal 0 0 -1
    outer loop
      vertex 36.33 5 0
      vertex 36.33 5.04894 0
      vertex 36.639 5.04894 0
    endloop
  endfacet
  facet normal 0 0 -1
    outer loop
      vertex 15.165 2.5 0
      vertex 36.33 5 0
      vertex 25.165 2.5 0
    endloop
  endfacet
  facet normal 0 0 -1
    outer loop
      vertex 37.139 27.5878 0
      vertex 37.33 31 0
      vertex 37.33 27 0
    endloop
  endfacet
  facet normal 0 0 -1
    outer loop
      vertex 37.33 31 0
      vertex 36.33 28 0
      vertex 34.33 28 0
    endloop
  endfacet
  facet normal 0 0 -1
    outer loop
      vertex 25.165 2.5 0
      vertex 40.139 0.412215 0
      vertex 39.639 0.048943 0
    endloop
  endfacet
  facet normal 0 0 -1
    outer loop
      vertex 36.639 27.9511 0
      vertex 36.33 28 0
      vertex 37.33 31 0
    endloop
  endfacet
  facet normal 0 0 -1
    outer loop
      vertex 36.639 27.9511 0
      vertex 37.33 31 0
      vertex 37.139 27.5878 0
    endloop
  endfacet
  facet normal 0 0 -1
    outer loop
      vertex 37.521 28.5878 0
      vertex 37.33 31 0
      vertex 39.33 31 0
    endloop
  endfacet
  facet normal 0 0 -1
    outer loop
      vertex 38.639 28.9511 0
      vertex 39.33 30.9511 0
      vertex 39.33 28 0
    endloop
  endfacet
  facet normal 0 0 -1
    outer loop
      vertex 39.33 28 0
      vertex 39.33 30.9511 0
      vertex 39.639 30.9511 0
    endloop
  endfacet
  facet normal 0 0 -1
    outer loop
      vertex 37.33 6 0
      vertex 39.639 30.9511 0
      vertex 40.139 30.5878 0
    endloop
  endfacet
  facet normal 0 0 -1
    outer loop
      vertex 37.33 6 0
      vertex 40.139 30.5878 0
      vertex 40.33 30 0
    endloop
  endfacet
  facet normal 0 0 -1
    outer loop
      vertex 39.33 3 0
      vertex 40.33 30 0
      vertex 40.33 1 0
    endloop
  endfacet
  facet normal 0 0 -1
    outer loop
      vertex 37.521 3.58778 0
      vertex 37.139 5.41221 0
      vertex 37.33 6 0
    endloop
  endfacet
  facet normal 0 0 -1
    outer loop
      vertex 37.521 3.58778 0
      vertex 37.33 6 0
      vertex 38.639 3.95106 0
    endloop
  endfacet
  facet normal 0 0 -1
    outer loop
      vertex 37.521 2.41221 0
      vertex 40.33 1 0
      vertex 25.165 2.5 0
    endloop
  endfacet
  facet normal 0 0 -1
    outer loop
      vertex 4 5 0
      vertex 36.33 5 0
      vertex 15.165 2.5 0
    endloop
  endfacet
  facet normal 0 0 -1
    outer loop
      vertex 2.30902 2.04894 0
      vertex 15.165 2.5 0
      vertex 0.190983 0.412215 0
    endloop
  endfacet
  facet normal 0 0 -1
    outer loop
      vertex 0.690983 0.048943 0
      vertex 0.190983 0.412215 0
      vertex 1 0.048943 0
    endloop
  endfacet
  facet normal 0 0 -1
    outer loop
      vertex 1 0.048943 0
      vertex 15.165 0 0
      vertex 1 0 0
    endloop
  endfacet
  facet normal 0 0 -1
    outer loop
      vertex 0.190983 0.412215 0
      vertex 15.165 0 0
      vertex 1 0.048943 0
    endloop
  endfacet
  facet normal 0 0 -1
    outer loop
      vertex 1.19098 3.58778 0
      vertex 3 6 0
      vertex 2.30902 3.95106 0
    endloop
  endfacet
  facet normal 0 0 -1
    outer loop
      vertex 2.30902 2.04894 0
      vertex 0.190983 0.412215 0
      vertex 1.19098 2.41221 0
    endloop
  endfacet
  facet normal 0 0 -1
    outer loop
      vertex 0.190983 0.412215 0
      vertex 1.19098 3.58778 0
      vertex 1.19098 2.41221 0
    endloop
  endfacet
  facet normal 0 0 -1
    outer loop
      vertex 2.30902 3.95106 0
      vertex 3.19098 5.41221 0
      vertex 3.69098 5.04894 0
    endloop
  endfacet
  facet normal 0 0 -1
    outer loop
      vertex 3 3 0
      vertex 15.165 2.5 0
      vertex 2.30902 2.04894 0
    endloop
  endfacet
  facet normal 0 0 -1
    outer loop
      vertex 2.30902 3.95106 0
      vertex 3.69098 5.04894 0
      vertex 4 5.04894 0
    endloop
  endfacet
  facet normal 0 0 -1
    outer loop
      vertex 4 5 0
      vertex 15.165 2.5 0
      vertex 3 3 0
    endloop
  endfacet
  facet normal 0 0 -1
    outer loop
      vertex 1.19098 28.5878 0
      vertex 3 31 0
      vertex 2.30902 28.9511 0
    endloop
  endfacet
  facet normal 0 0 -1
    outer loop
      vertex 1 30.9511 0
      vertex 3 31 0
      vertex 1.19098 28.5878 0
    endloop
  endfacet
  facet normal 0 0 -1
    outer loop
      vertex 1 30.9511 0
      vertex 1.19098 28.5878 0
      vertex 0.190983 0.412215 0
    endloop
  endfacet
  facet normal 0 0 -1
    outer loop
      vertex 3 28 0
      vertex 0.190983 0.412215 0
      vertex 2.30902 27.0489 0
    endloop
  endfacet
  facet normal 0 0 -1
    outer loop
      vertex 1.19098 28.5878 0
      vertex 1.19098 27.4122 0
      vertex 0.190983 0.412215 0
    endloop
  endfacet
  facet normal 0 0 -1
    outer loop
      vertex 37.521 3.58778 0
      vertex 36.33 5 0
      vertex 36.639 5.04894 0
    endloop
  endfacet
  facet normal 0 0 -1
    outer loop
      vertex 1.19098 27.4122 0
      vertex 2.30902 27.0489 0
      vertex 0.190983 0.412215 0
    endloop
  endfacet
  facet normal 0 0 -1
    outer loop
      vertex 2.30902 28.9511 0
      vertex 3 31 0
      vertex 3 28 0
    endloop
  endfacet
  facet normal 0 0 -1
    outer loop
      vertex 3 27 0
      vertex 3 28 0
      vertex 3.19098 27.5878 0
    endloop
  endfacet
  facet normal 0 0 -1
    outer loop
      vertex 37.521 3.58778 0
      vertex 36.639 5.04894 0
      vertex 37.139 5.41221 0
    endloop
  endfacet
  facet normal 0 0 -1
    outer loop
      vertex 39.33 3 0
      vertex 40.33 1 0
      vertex 38.639 2.04894 0
    endloop
  endfacet
  facet normal 0 0 -1
    outer loop
      vertex 36.33 5 0
      vertex 37.521 3.58778 0
      vertex 25.165 2.5 0
    endloop
  endfacet
  facet normal 0 0 -1
    outer loop
      vertex 38.639 2.04894 0
      vertex 40.33 1 0
      vertex 37.521 2.41221 0
    endloop
  endfacet
  facet normal 0 0 -1
    outer loop
      vertex 37.521 3.58778 0
      vertex 37.521 2.41221 0
      vertex 25.165 2.5 0
    endloop
  endfacet
  facet normal 0 0 -1
    outer loop
      vertex 37.33 6 0
      vertex 40.33 30 0
      vertex 39.33 3 0
    endloop
  endfacet
  facet normal 0 0 -1
    outer loop
      vertex 37.521 28.5878 0
      vertex 39.33 31 0
      vertex 38.639 28.9511 0
    endloop
  endfacet
  facet normal 0 0 -1
    outer loop
      vertex 37.33 6 0
      vertex 39.33 3 0
      vertex 38.639 3.95106 0
    endloop
  endfacet
  facet normal 0 0 -1
    outer loop
      vertex 37.33 27 0
      vertex 37.33 31 0
      vertex 37.521 28.5878 0
    endloop
  endfacet
  facet normal 0 0 -1
    outer loop
      vertex 38.639 27.0489 0
      vertex 37.33 27 0
      vertex 37.521 27.4122 0
    endloop
  endfacet
  facet normal 0 0 -1
    outer loop
      vertex 37.33 27 0
      vertex 37.521 28.5878 0
      vertex 37.521 27.4122 0
    endloop
  endfacet
  facet normal 0 0 -1
    outer loop
      vertex 37.33 27 0
      vertex 38.639 27.0489 0
      vertex 37.33 6 0
    endloop
  endfacet
  facet normal 0 0 -1
    outer loop
      vertex 38.639 28.9511 0
      vertex 39.33 31 0
      vertex 39.33 30.9511 0
    endloop
  endfacet
  facet normal 0 0 -1
    outer loop
      vertex 37.33 6 0
      vertex 39.33 28 0
      vertex 39.639 30.9511 0
    endloop
  endfacet
  facet normal 0 0 -1
    outer loop
      vertex 39.33 28 0
      vertex 37.33 6 0
      vertex 38.639 27.0489 0
    endloop
  endfacet
  facet normal 0 0 -1
    outer loop
      vertex 3.69098 27.9511 0
      vertex 4 28 0
      vertex 4 27.9511 0
    endloop
  endfacet
  facet normal 0 0 -1
    outer loop
      vertex 25.165 2.5 0
      vertex 39.33 0.048943 0
      vertex 39.33 0 0
    endloop
  endfacet
  facet normal -0.951056 0.309017 0
    outer loop
      vertex 0 30 0
      vertex 0 30 10
      vertex 0.190983 30.5878 0
    endloop
  endfacet
  facet normal -0.951056 0.309017 0
    outer loop
      vertex 0.190983 30.5878 0
      vertex 0 30 10
      vertex 0.190983 30.5878 10
    endloop
  endfacet
  facet normal 0 0 1
    outer loop
      vertex 0 30 10
      vertex 0 1 10
      vertex 0.190983 0.412215 10
    endloop
  endfacet
  facet normal 0 0 1
    outer loop
      vertex 1 0.048943 10
      vertex 0 30 10
      vertex 0.690983 0.048943 10
    endloop
  endfacet
  facet normal 0 0 1
    outer loop
      vertex 0.690983 0.048943 10
      vertex 0 30 10
      vertex 0.190983 0.412215 10
    endloop
  endfacet
  facet normal 0 0 1
    outer loop
      vertex 1.19098 2.41221 10
      vertex 0 30 10
      vertex 1 0.048943 10
    endloop
  endfacet
  facet normal 0 0 1
    outer loop
      vertex 15.165 0 10
      vertex 1 0.048943 10
      vertex 1 0 10
    endloop
  endfacet
  facet normal 0 0 1
    outer loop
      vertex 3 6 10
      vertex 1.19098 27.4122 10
      vertex 0 30 10
    endloop
  endfacet
  facet normal 0 0 1
    outer loop
      vertex 2.30902 28.9511 10
      vertex 3.69098 27.9511 10
      vertex 4 28 10
    endloop
  endfacet
  facet normal 0 0 1
    outer loop
      vertex 39.33 0 10
      vertex 25.165 2.5 10
      vertex 25.165 0 10
    endloop
  endfacet
  facet normal 0 0 1
    outer loop
      vertex 36.33 27.9511 10
      vertex 36.639 27.9511 10
      vertex 36.33 28 10
    endloop
  endfacet
  facet normal 0 0 1
    outer loop
      vertex 37.33 27 10
      vertex 39.33 3 10
      vertex 40.33 1 10
    endloop
  endfacet
  facet normal 0 0 1
    outer loop
      vertex 37.33 27 10
      vertex 38.639 3.95106 10
      vertex 39.33 3 10
    endloop
  endfacet
  facet normal 0 0 1
    outer loop
      vertex 37.521 3.58778 10
      vertex 38.639 3.95106 10
      vertex 37.33 6 10
    endloop
  endfacet
  facet normal 0 0 1
    outer loop
      vertex 40.33 30 10
      vertex 34.33 28 10
      vertex 36.33 28 10
    endloop
  endfacet
  facet normal 0 0 1
    outer loop
      vertex 37.521 28.5878 10
      vertex 36.33 28 10
      vertex 36.639 27.9511 10
    endloop
  endfacet
  facet normal 0 0 1
    outer loop
      vertex 37.521 3.58778 10
      vertex 37.33 6 10
      vertex 37.139 5.41221 10
    endloop
  endfacet
  facet normal 0 0 1
    outer loop
      vertex 38.639 27.0489 10
      vertex 37.33 27 10
      vertex 40.33 1 10
    endloop
  endfacet
  facet normal 0 0 1
    outer loop
      vertex 37.521 27.4122 10
      vertex 37.139 27.5878 10
      vertex 37.33 27 10
    endloop
  endfacet
  facet normal 0 0 1
    outer loop
      vertex 39.33 3 10
      vertex 38.639 2.04894 10
      vertex 40.33 1 10
    endloop
  endfacet
  facet normal 0 0 1
    outer loop
      vertex 2.30902 27.0489 10
      vertex 1.19098 27.4122 10
      vertex 3 6 10
    endloop
  endfacet
  facet normal 0 0 1
    outer loop
      vertex 37.521 27.4122 10
      vertex 36.639 27.9511 10
      vertex 37.139 27.5878 10
    endloop
  endfacet
  facet normal 0 0 1
    outer loop
      vertex 2.30902 2.04894 10
      vertex 1.19098 2.41221 10
      vertex 1 0.048943 10
    endloop
  endfacet
  facet normal 0 0 1
    outer loop
      vertex 37.521 27.4122 10
      vertex 37.521 28.5878 10
      vertex 36.639 27.9511 10
    endloop
  endfacet
  facet normal 0 0 1
    outer loop
      vertex 1.19098 28.5878 10
      vertex 2.30902 28.9511 10
      vertex 0 30 10
    endloop
  endfacet
  facet normal 0 0 1
    outer loop
      vertex 37.521 2.41221 10
      vertex 37.521 3.58778 10
      vertex 36.33 5 10
    endloop
  endfacet
  facet normal 0 0 1
    outer loop
      vertex 2.30902 3.95106 10
      vertex 3 3 10
      vertex 4 5 10
    endloop
  endfacet
  facet normal 0 0 1
    outer loop
      vertex 3 28 10
      vertex 2.30902 27.0489 10
      vertex 3 27 10
    endloop
  endfacet
  facet normal 0 0 1
    outer loop
      vertex 2.30902 3.95106 10
      vertex 4 5 10
      vertex 3.69098 5.04894 10
    endloop
  endfacet
  facet normal 0 0 1
    outer loop
      vertex 3 28 10
      vertex 3 27 10
      vertex 3.19098 27.5878 10
    endloop
  endfacet
  facet normal 0 0 1
    outer loop
      vertex 6 28 10
      vertex 3 31 10
      vertex 0 30 10
    endloop
  endfacet
  facet normal 0 0 1
    outer loop
      vertex 37.521 3.58778 10
      vertex 36.639 5.04894 10
      vertex 36.33 5.04894 10
    endloop
  endfacet
  facet normal 0 0 1
    outer loop
      vertex 1 30.9511 10
      vertex 0 30 10
      vertex 3 31 10
    endloop
  endfacet
  facet normal 0 0 1
    outer loop
      vertex 2.30902 3.95106 10
      vertex 3.19098 5.41221 10
      vertex 3 6 10
    endloop
  endfacet
  facet normal 0 0 1
    outer loop
      vertex 1 31 10
      vertex 1 30.9511 10
      vertex 3 31 10
    endloop
  endfacet
  facet normal 0 0 1
    outer loop
      vertex 2.30902 3.95106 10
      vertex 3.69098 5.04894 10
      vertex 3.19098 5.41221 10
    endloop
  endfacet
  facet normal 0 0 1
    outer loop
      vertex 0.190983 30.5878 10
      vertex 0 30 10
      vertex 0.690983 30.9511 10
    endloop
  endfacet
  facet normal 0 0 1
    outer loop
      vertex 1.19098 3.58778 10
      vertex 0 30 10
      vertex 1.19098 2.41221 10
    endloop
  endfacet
  facet normal 0 0 1
    outer loop
      vertex 3 6 10
      vertex 0 30 10
      vertex 1.19098 3.58778 10
    endloop
  endfacet
  facet normal 0 0 1
    outer loop
      vertex 1.19098 3.58778 10
      vertex 2.30902 3.95106 10
      vertex 3 6 10
    endloop
  endfacet
  facet normal 0 0 1
    outer loop
      vertex 15.165 0 10
      vertex 3 3 10
      vertex 1 0.048943 10
    endloop
  endfacet
  facet normal 0 0 1
    outer loop
      vertex 15.165 0 10
      vertex 4 5 10
      vertex 3 3 10
    endloop
  endfacet
  facet normal 0 0 1
    outer loop
      vertex 3 3 10
      vertex 2.30902 2.04894 10
      vertex 1 0.048943 10
    endloop
  endfacet
  facet normal 0 0 1
    outer loop
      vertex 4 5.04894 10
      vertex 3.69098 5.04894 10
      vertex 4 5 10
    endloop
  endfacet
  facet normal 0 0 1
    outer loop
      vertex 2.30902 28.9511 10
      vertex 3 28 10
      vertex 3.69098 27.9511 10
    endloop
  endfacet
  facet normal 0 0 1
    outer loop
      vertex 6 28 10
      vertex 2.30902 28.9511 10
      vertex 4 28 10
    endloop
  endfacet
  facet normal 0 0 1
    outer loop
      vertex 6 28 10
      vertex 0 30 10
      vertex 2.30902 28.9511 10
    endloop
  endfacet
  facet normal 0 0 1
    outer loop
      vertex 37.521 3.58778 10
      vertex 37.139 5.41221 10
      vertex 36.639 5.04894 10
    endloop
  endfacet
  facet normal 0 0 1
    outer loop
      vertex 4 27.9511 10
      vertex 4 28 10
      vertex 3.69098 27.9511 10
    endloop
  endfacet
  facet normal 0 0 1
    outer loop
      vertex 3 6 10
      vertex 3 27 10
      vertex 2.30902 27.0489 10
    endloop
  endfacet
  facet normal 0 0 1
    outer loop
      vertex 3.19098 27.5878 10
      vertex 3.69098 27.9511 10
      vertex 3 28 10
    endloop
  endfacet
  facet normal 0 0 1
    outer loop
      vertex 40.33 1 10
      vertex 37.521 2.41221 10
      vertex 40.139 0.412215 10
    endloop
  endfacet
  facet normal 0 0 1
    outer loop
      vertex 38.639 27.0489 10
      vertex 37.521 27.4122 10
      vertex 37.33 27 10
    endloop
  endfacet
  facet normal 0 0 1
    outer loop
      vertex 1.19098 27.4122 10
      vertex 1.19098 28.5878 10
      vertex 0 30 10
    endloop
  endfacet
  facet normal 0 0 1
    outer loop
      vertex 40.33 1 10
      vertex 38.639 2.04894 10
      vertex 37.521 2.41221 10
    endloop
  endfacet
  facet normal 0 0 1
    outer loop
      vertex 37.521 28.5878 10
      vertex 38.639 28.9511 10
      vertex 40.33 30 10
    endloop
  endfacet
  facet normal 0 0 1
    outer loop
      vertex 40.33 30 10
      vertex 36.33 28 10
      vertex 37.521 28.5878 10
    endloop
  endfacet
  facet normal 0 0 1
    outer loop
      vertex 38.639 28.9511 10
      vertex 39.33 28 10
      vertex 40.33 30 10
    endloop
  endfacet
  facet normal 0 0 1
    outer loop
      vertex 40.33 30 10
      vertex 39.33 28 10
      vertex 40.33 1 10
    endloop
  endfacet
  facet normal 0 0 1
    outer loop
      vertex 39.33 28 10
      vertex 38.639 27.0489 10
      vertex 40.33 1 10
    endloop
  endfacet
  facet normal 0 0 1
    outer loop
      vertex 1 30.9511 10
      vertex 0.690983 30.9511 10
      vertex 0 30 10
    endloop
  endfacet
  facet normal 0 0 1
    outer loop
      vertex 37.33 31 10
      vertex 39.33 30.9511 10
      vertex 39.33 31 10
    endloop
  endfacet
  facet normal 0 0 1
    outer loop
      vertex 39.33 30.9511 10
      vertex 40.139 30.5878 10
      vertex 39.639 30.9511 10
    endloop
  endfacet
  facet normal 0 0 1
    outer loop
      vertex 37.33 31 10
      vertex 40.139 30.5878 10
      vertex 39.33 30.9511 10
    endloop
  endfacet
  facet normal 0 0 1
    outer loop
      vertex 37.33 31 10
      vertex 40.33 30 10
      vertex 40.139 30.5878 10
    endloop
  endfacet
  facet normal 0 0 1
    outer loop
      vertex 37.33 31 10
      vertex 34.33 28 10
      vertex 40.33 30 10
    endloop
  endfacet
  facet normal 0 0 1
    outer loop
      vertex 37.33 27 10
      vertex 37.33 6 10
      vertex 38.639 3.95106 10
    endloop
  endfacet
  facet normal 0 0 1
    outer loop
      vertex 37.521 3.58778 10
      vertex 36.33 5.04894 10
      vertex 36.33 5 10
    endloop
  endfacet
  facet normal 0 0 1
    outer loop
      vertex 37.521 2.41221 10
      vertex 39.639 0.048943 10
      vertex 40.139 0.412215 10
    endloop
  endfacet
  facet normal 0 0 1
    outer loop
      vertex 37.521 2.41221 10
      vertex 39.33 0.048943 10
      vertex 39.639 0.048943 10
    endloop
  endfacet
  facet normal 0 0 1
    outer loop
      vertex 37.521 2.41221 10
      vertex 39.33 0 10
      vertex 39.33 0.048943 10
    endloop
  endfacet
  facet normal 0 0 1
    outer loop
      vertex 37.521 2.41221 10
      vertex 25.165 2.5 10
      vertex 39.33 0 10
    endloop
  endfacet
  facet normal 0 0 1
    outer loop
      vertex 36.33 5 10
      vertex 25.165 2.5 10
      vertex 37.521 2.41221 10
    endloop
  endfacet
  facet normal 0 0 1
    outer loop
      vertex 36.33 5 10
      vertex 15.165 2.5 10
      vertex 25.165 2.5 10
    endloop
  endfacet
  facet normal 0 0 1
    outer loop
      vertex 15.165 2.5 10
      vertex 4 5 10
      vertex 15.165 0 10
    endloop
  endfacet
  facet normal 0 0 1
    outer loop
      vertex 36.33 5 10
      vertex 4 5 10
      vertex 15.165 2.5 10
    endloop
  endfacet
  facet normal -0.587786 -0.809016 0
    outer loop
      vertex 0.190983 0.412215 10
      vertex 0.190983 0.412215 0
      vertex 0.690983 0.048943 0
    endloop
  endfacet
  facet normal -0.587786 -0.809016 0
    outer loop
      vertex 0.690983 0.048943 10
      vertex 0.190983 0.412215 10
      vertex 0.690983 0.048943 0
    endloop
  endfacet
  facet normal 0 -1 0
    outer loop
      vertex 0.690983 0.048943 10
      vertex 0.690983 0.048943 0
      vertex 1 0.048943 0
    endloop
  endfacet
  facet normal 0 -1 0
    outer loop
      vertex 1 0.048943 10
      vertex 0.690983 0.048943 10
      vertex 1 0.048943 0
    endloop
  endfacet
  facet normal -1 0 0
    outer loop
      vertex 1 0.048943 10
      vertex 1 0.048943 0
      vertex 1 0 10
    endloop
  endfacet
  facet normal -1 0 0
    outer loop
      vertex 1 0 10
      vertex 1 0.048943 0
      vertex 1 0 0
    endloop
  endfacet
  facet normal 0 -1 0
    outer loop
      vertex 1 0 10
      vertex 1 0 0
      vertex 15.165 0 0
    endloop
  endfacet
  facet normal 0 -1 0
    outer loop
      vertex 15.165 0 10
      vertex 1 0 10
      vertex 15.165 0 0
    endloop
  endfacet
  facet normal 1 0 0
    outer loop
      vertex 15.165 2.5 0
      vertex 15.165 2.5 10
      vertex 15.165 0 10
    endloop
  endfacet
  facet normal 1 0 0
    outer loop
      vertex 15.165 0 0
      vertex 15.165 2.5 0
      vertex 15.165 0 10
    endloop
  endfacet
  facet normal 0 -1 0
    outer loop
      vertex 19.72 2.5 6.94986
      vertex 25.165 2.5 10
      vertex 15.165 2.5 10
    endloop
  endfacet
  facet normal 0 -1 0
    outer loop
      vertex 22.165 2.5 5
      vertex 21.412 2.5 3.43634
      vertex 25.165 2.5 0
    endloop
  endfacet
  facet normal 0 -1 0
    outer loop
      vertex 15.165 2.5 0
      vertex 18.3631 2.5 5.86777
      vertex 15.165 2.5 10
    endloop
  endfacet
  facet normal 0 -1 0
    outer loop
      vertex 21.412 2.5 6.56366
      vertex 25.165 2.5 10
      vertex 19.72 2.5 6.94986
    endloop
  endfacet
  facet normal 0 -1 0
    outer loop
      vertex 25.165 2.5 0
      vertex 25.165 2.5 10
      vertex 21.412 2.5 6.56366
    endloop
  endfacet
  facet normal 0 -1 0
    outer loop
      vertex 21.412 2.5 3.43634
      vertex 19.72 2.5 3.05014
      vertex 25.165 2.5 0
    endloop
  endfacet
  facet normal 0 -1 0
    outer loop
      vertex 25.165 2.5 0
      vertex 21.412 2.5 6.56366
      vertex 22.165 2.5 5
    endloop
  endfacet
  facet normal 0 -1 0
    outer loop
      vertex 15.165 2.5 0
      vertex 25.165 2.5 0
      vertex 19.72 2.5 3.05014
    endloop
  endfacet
  facet normal 0 -1 0
    outer loop
      vertex 15.165 2.5 0
      vertex 18.3631 2.5 4.13223
      vertex 18.3631 2.5 5.86777
    endloop
  endfacet
  facet normal 0 -1 0
    outer loop
      vertex 15.165 2.5 0
      vertex 19.72 2.5 3.05014
      vertex 18.3631 2.5 4.13223
    endloop
  endfacet
  facet normal 0 -1 0
    outer loop
      vertex 18.3631 2.5 5.86777
      vertex 19.72 2.5 6.94986
      vertex 15.165 2.5 10
    endloop
  endfacet
  facet normal -1 0 0
    outer loop
      vertex 25.165 2.5 10
      vertex 25.165 2.5 0
      vertex 25.165 0 10
    endloop
  endfacet
  facet normal -1 0 0
    outer loop
      vertex 25.165 0 10
      vertex 25.165 2.5 0
      vertex 25.165 0 0
    endloop
  endfacet
  facet normal 0 -1 0
    outer loop
      vertex 25.165 0 10
      vertex 25.165 0 0
      vertex 39.33 0 0
    endloop
  endfacet
  facet normal 0 -1 0
    outer loop
      vertex 39.33 0 10
      vertex 25.165 0 10
      vertex 39.33 0 0
    endloop
  endfacet
  facet normal 1 0 0
    outer loop
      vertex 39.33 0.048943 0
      vertex 39.33 0.048943 10
      vertex 39.33 0 10
    endloop
  endfacet
  facet normal 1 0 0
    outer loop
      vertex 39.33 0 0
      vertex 39.33 0.048943 0
      vertex 39.33 0 10
    endloop
  endfacet
  facet normal 0 -1 0
    outer loop
      vertex 39.33 0.048943 10
      vertex 39.33 0.048943 0
      vertex 39.639 0.048943 0
    endloop
  endfacet
  facet normal 0 -1 0
    outer loop
      vertex 39.639 0.048943 10
      vertex 39.33 0.048943 10
      vertex 39.639 0.048943 0
    endloop
  endfacet
  facet normal 0.587786 -0.809016 0
    outer loop
      vertex 39.639 0.048943 10
      vertex 39.639 0.048943 0
      vertex 40.139 0.412215 0
    endloop
  endfacet
  facet normal 0.587786 -0.809016 0
    outer loop
      vertex 40.139 0.412215 10
      vertex 39.639 0.048943 10
      vertex 40.139 0.412215 0
    endloop
  endfacet
  facet normal 0.951056 -0.309017 0
    outer loop
      vertex 40.139 0.412215 10
      vertex 40.139 0.412215 0
      vertex 40.33 1 0
    endloop
  endfacet
  facet normal 0.951056 -0.309017 0
    outer loop
      vertex 40.33 1 10
      vertex 40.139 0.412215 10
      vertex 40.33 1 0
    endloop
  endfacet
  facet normal 1 0 0
    outer loop
      vertex 40.33 1 10
      vertex 40.33 1 0
      vertex 40.33 30 0
    endloop
  endfacet
  facet normal 1 0 0
    outer loop
      vertex 40.33 30 10
      vertex 40.33 1 10
      vertex 40.33 30 0
    endloop
  endfacet
  facet normal 0.951056 0.309017 0
    outer loop
      vertex 40.33 30 0
      vertex 40.139 30.5878 0
      vertex 40.139 30.5878 10
    endloop
  endfacet
  facet normal 0.951056 0.309017 0
    outer loop
      vertex 40.33 30 10
      vertex 40.33 30 0
      vertex 40.139 30.5878 10
    endloop
  endfacet
  facet normal 0.587786 0.809016 0
    outer loop
      vertex 39.639 30.9511 0
      vertex 39.639 30.9511 10
      vertex 40.139 30.5878 0
    endloop
  endfacet
  facet normal 0.587786 0.809016 0
    outer loop
      vertex 40.139 30.5878 0
      vertex 39.639 30.9511 10
      vertex 40.139 30.5878 10
    endloop
  endfacet
  facet normal 0 1 0
    outer loop
      vertex 39.33 30.9511 0
      vertex 39.33 30.9511 10
      vertex 39.639 30.9511 0
    endloop
  endfacet
  facet normal 0 1 0
    outer loop
      vertex 39.639 30.9511 0
      vertex 39.33 30.9511 10
      vertex 39.639 30.9511 10
    endloop
  endfacet
  facet normal 1 0 0
    outer loop
      vertex 39.33 31 0
      vertex 39.33 31 10
      vertex 39.33 30.9511 10
    endloop
  endfacet
  facet normal 1 0 0
    outer loop
      vertex 39.33 30.9511 0
      vertex 39.33 31 0
      vertex 39.33 30.9511 10
    endloop
  endfacet
  facet normal 0 1 0
    outer loop
      vertex 37.33 31 0
      vertex 37.33 31 10
      vertex 39.33 31 0
    endloop
  endfacet
  facet normal 0 1 0
    outer loop
      vertex 39.33 31 0
      vertex 37.33 31 10
      vertex 39.33 31 10
    endloop
  endfacet
  facet normal -0.707107 0.707107 0
    outer loop
      vertex 37.33 31 10
      vertex 37.33 31 0
      vertex 34.33 28 10
    endloop
  endfacet
  facet normal -0.707107 0.707107 0
    outer loop
      vertex 34.33 28 10
      vertex 37.33 31 0
      vertex 34.33 28 0
    endloop
  endfacet
  facet normal 0 -1 0
    outer loop
      vertex 36.33 28 0
      vertex 36.33 28 10
      vertex 34.33 28 10
    endloop
  endfacet
  facet normal 0 -1 0
    outer loop
      vertex 34.33 28 0
      vertex 36.33 28 0
      vertex 34.33 28 10
    endloop
  endfacet
  facet normal -1 0 0
    outer loop
      vertex 36.33 27.9511 0
      vertex 36.33 27.9511 10
      vertex 36.33 28 0
    endloop
  endfacet
  facet normal -1 0 0
    outer loop
      vertex 36.33 28 0
      vertex 36.33 27.9511 10
      vertex 36.33 28 10
    endloop
  endfacet
  facet normal 0 -1 0
    outer loop
      vertex 36.639 27.9511 0
      vertex 36.639 27.9511 10
      vertex 36.33 27.9511 10
    endloop
  endfacet
  facet normal 0 -1 0
    outer loop
      vertex 36.33 27.9511 0
      vertex 36.639 27.9511 0
      vertex 36.33 27.9511 10
    endloop
  endfacet
  facet normal -0.587786 -0.809016 0
    outer loop
      vertex 37.139 27.5878 0
      vertex 37.139 27.5878 10
      vertex 36.639 27.9511 10
    endloop
  endfacet
  facet normal -0.587786 -0.809016 0
    outer loop
      vertex 36.639 27.9511 0
      vertex 37.139 27.5878 0
      vertex 36.639 27.9511 10
    endloop
  endfacet
  facet normal -0.951056 -0.309017 0
    outer loop
      vertex 37.33 27 10
      vertex 37.139 27.5878 10
      vertex 37.33 27 0
    endloop
  endfacet
  facet normal -0.951056 -0.309017 0
    outer loop
      vertex 37.33 27 0
      vertex 37.139 27.5878 10
      vertex 37.139 27.5878 0
    endloop
  endfacet
  facet normal -1 0 0
    outer loop
      vertex 37.33 27 10
      vertex 37.33 27 0
      vertex 37.33 6 10
    endloop
  endfacet
  facet normal -1 0 0
    outer loop
      vertex 37.33 6 10
      vertex 37.33 27 0
      vertex 37.33 6 0
    endloop
  endfacet
  facet normal -0.951056 0.309017 0
    outer loop
      vertex 37.33 6 10
      vertex 37.33 6 0
      vertex 37.139 5.41221 10
    endloop
  endfacet
  facet normal -0.951056 0.309017 0
    outer loop
      vertex 37.139 5.41221 10
      vertex 37.33 6 0
      vertex 37.139 5.41221 0
    endloop
  endfacet
  facet normal -0.587786 0.809016 0
    outer loop
      vertex 37.139 5.41221 10
      vertex 37.139 5.41221 0
      vertex 36.639 5.04894 10
    endloop
  endfacet
  facet normal -0.587786 0.809016 0
    outer loop
      vertex 36.639 5.04894 10
      vertex 37.139 5.41221 0
      vertex 36.639 5.04894 0
    endloop
  endfacet
  facet normal 0 1 0
    outer loop
      vertex 36.639 5.04894 10
      vertex 36.639 5.04894 0
      vertex 36.33 5.04894 10
    endloop
  endfacet
  facet normal 0 1 0
    outer loop
      vertex 36.33 5.04894 10
      vertex 36.639 5.04894 0
      vertex 36.33 5.04894 0
    endloop
  endfacet
  facet normal -1 0 0
    outer loop
      vertex 36.33 5 0
      vertex 36.33 5 10
      vertex 36.33 5.04894 0
    endloop
  endfacet
  facet normal -1 0 0
    outer loop
      vertex 36.33 5.04894 0
      vertex 36.33 5 10
      vertex 36.33 5.04894 10
    endloop
  endfacet
  facet normal 0 1 0
    outer loop
      vertex 19.72 5 3.05014
      vertex 36.33 5 0
      vertex 4 5 0
    endloop
  endfacet
  facet normal 0 1 0
    outer loop
      vertex 22.165 5 5
      vertex 36.33 5 0
      vertex 21.412 5 3.43634
    endloop
  endfacet
  facet normal 0 1 0
    outer loop
      vertex 4 5 10
      vertex 18.3631 5 4.13223
      vertex 4 5 0
    endloop
  endfacet
  facet normal 0 1 0
    outer loop
      vertex 18.3631 5 5
      vertex 4 5 10
      vertex 22.165 5 5
    endloop
  endfacet
  facet normal 0 1 0
    outer loop
      vertex 18.3631 5 4.13223
      vertex 19.72 5 3.05014
      vertex 4 5 0
    endloop
  endfacet
  facet normal 0 1 0
    outer loop
      vertex 21.412 5 3.43634
      vertex 36.33 5 0
      vertex 19.72 5 3.05014
    endloop
  endfacet
  facet normal 0 1 0
    outer loop
      vertex 36.33 5 10
      vertex 36.33 5 0
      vertex 22.165 5 5
    endloop
  endfacet
  facet normal 0 1 0
    outer loop
      vertex 36.33 5 10
      vertex 22.165 5 5
      vertex 4 5 10
    endloop
  endfacet
  facet normal 0 1 0
    outer loop
      vertex 18.3631 5 4.13223
      vertex 4 5 10
      vertex 18.3631 5 5
    endloop
  endfacet
  facet normal 1 0 0
    outer loop
      vertex 4 5 10
      vertex 4 5 0
      vertex 4 5.04894 0
    endloop
  endfacet
  facet normal 1 0 0
    outer loop
      vertex 4 5.04894 10
      vertex 4 5 10
      vertex 4 5.04894 0
    endloop
  endfacet
  facet normal 0 1 0
    outer loop
      vertex 4 5.04894 10
      vertex 4 5.04894 0
      vertex 3.69098 5.04894 10
    endloop
  endfacet
  facet normal 0 1 0
    outer loop
      vertex 3.69098 5.04894 10
      vertex 4 5.04894 0
      vertex 3.69098 5.04894 0
    endloop
  endfacet
  facet normal 0.587786 0.809016 0
    outer loop
      vertex 3.69098 5.04894 10
      vertex 3.69098 5.04894 0
      vertex 3.19098 5.41221 10
    endloop
  endfacet
  facet normal 0.587786 0.809016 0
    outer loop
      vertex 3.19098 5.41221 10
      vertex 3.69098 5.04894 0
      vertex 3.19098 5.41221 0
    endloop
  endfacet
  facet normal 0.951056 0.309017 0
    outer loop
      vertex 3 6 10
      vertex 3.19098 5.41221 10
      vertex 3.19098 5.41221 0
    endloop
  endfacet
  facet normal 0.951056 0.309017 0
    outer loop
      vertex 3 6 0
      vertex 3 6 10
      vertex 3.19098 5.41221 0
    endloop
  endfacet
  facet normal 1 0 0
    outer loop
      vertex 3 27 0
      vertex 3 27 10
      vertex 3 6 10
    endloop
  endfacet
  facet normal 1 0 0
    outer loop
      vertex 3 6 0
      vertex 3 27 0
      vertex 3 6 10
    endloop
  endfacet
  facet normal 0.951056 -0.309017 0
    outer loop
      vertex 3.19098 27.5878 0
      vertex 3.19098 27.5878 10
      vertex 3 27 10
    endloop
  endfacet
  facet normal 0.951056 -0.309017 0
    outer loop
      vertex 3 27 0
      vertex 3.19098 27.5878 0
      vertex 3 27 10
    endloop
  endfacet
  facet normal 0.587786 -0.809016 0
    outer loop
      vertex 3.69098 27.9511 0
      vertex 3.69098 27.9511 10
      vertex 3.19098 27.5878 10
    endloop
  endfacet
  facet normal 0.587786 -0.809016 0
    outer loop
      vertex 3.19098 27.5878 0
      vertex 3.69098 27.9511 0
      vertex 3.19098 27.5878 10
    endloop
  endfacet
  facet normal 0 -1 0
    outer loop
      vertex 4 27.9511 0
      vertex 4 27.9511 10
      vertex 3.69098 27.9511 10
    endloop
  endfacet
  facet normal 0 -1 0
    outer loop
      vertex 3.69098 27.9511 0
      vertex 4 27.9511 0
      vertex 3.69098 27.9511 10
    endloop
  endfacet
  facet normal 1 0 0
    outer loop
      vertex 4 27.9511 10
      vertex 4 27.9511 0
      vertex 4 28 0
    endloop
  endfacet
  facet normal 1 0 0
    outer loop
      vertex 4 28 10
      vertex 4 27.9511 10
      vertex 4 28 0
    endloop
  endfacet
  facet normal 0 -1 0
    outer loop
      vertex 6 28 0
      vertex 6 28 10
      vertex 4 28 10
    endloop
  endfacet
  facet normal 0 -1 0
    outer loop
      vertex 4 28 0
      vertex 6 28 0
      vertex 4 28 10
    endloop
  endfacet
  facet normal 0.707107 0.707107 0
    outer loop
      vertex 6 28 10
      vertex 6 28 0
      vertex 3 31 10
    endloop
  endfacet
  facet normal 0.707107 0.707107 0
    outer loop
      vertex 3 31 10
      vertex 6 28 0
      vertex 3 31 0
    endloop
  endfacet
  facet normal 0 1 0
    outer loop
      vertex 1 31 0
      vertex 1 31 10
      vertex 3 31 0
    endloop
  endfacet
  facet normal 0 1 0
    outer loop
      vertex 3 31 0
      vertex 1 31 10
      vertex 3 31 10
    endloop
  endfacet
  facet normal -1 0 0
    outer loop
      vertex 1 31 10
      vertex 1 31 0
      vertex 1 30.9511 10
    endloop
  endfacet
  facet normal -1 0 0
    outer loop
      vertex 1 30.9511 10
      vertex 1 31 0
      vertex 1 30.9511 0
    endloop
  endfacet
  facet normal 0 1 0
    outer loop
      vertex 0.690983 30.9511 0
      vertex 0.690983 30.9511 10
      vertex 1 30.9511 0
    endloop
  endfacet
  facet normal 0 1 0
    outer loop
      vertex 1 30.9511 0
      vertex 0.690983 30.9511 10
      vertex 1 30.9511 10
    endloop
  endfacet
  facet normal -0.587786 0.809016 0
    outer loop
      vertex 0.190983 30.5878 0
      vertex 0.190983 30.5878 10
      vertex 0.690983 30.9511 0
    endloop
  endfacet
  facet normal -0.587786 0.809016 0
    outer loop
      vertex 0.690983 30.9511 0
      vertex 0.190983 30.5878 10
      vertex 0.690983 30.9511 10
    endloop
  endfacet
  facet normal 1 0 0
    outer loop
      vertex 1.19098 3.58778 0
      vertex 1.19098 3.58778 10
      vertex 1.19098 2.41221 10
    endloop
  endfacet
  facet normal 1 0 0
    outer loop
      vertex 1.19098 2.41221 0
      vertex 1.19098 3.58778 0
      vertex 1.19098 2.41221 10
    endloop
  endfacet
  facet normal 0.309018 -0.951056 0
    outer loop
      vertex 2.30902 3.95106 0
      vertex 2.30902 3.95106 10
      vertex 1.19098 3.58778 10
    endloop
  endfacet
  facet normal 0.309018 -0.951056 0
    outer loop
      vertex 1.19098 3.58778 0
      vertex 2.30902 3.95106 0
      vertex 1.19098 3.58778 10
    endloop
  endfacet
  facet normal -0.809017 -0.587785 0
    outer loop
      vertex 3 3 10
      vertex 2.30902 3.95106 10
      vertex 3 3 0
    endloop
  endfacet
  facet normal -0.809017 -0.587785 0
    outer loop
      vertex 3 3 0
      vertex 2.30902 3.95106 10
      vertex 2.30902 3.95106 0
    endloop
  endfacet
  facet normal -0.809017 0.587785 0
    outer loop
      vertex 3 3 10
      vertex 3 3 0
      vertex 2.30902 2.04894 10
    endloop
  endfacet
  facet normal -0.809017 0.587785 0
    outer loop
      vertex 2.30902 2.04894 10
      vertex 3 3 0
      vertex 2.30902 2.04894 0
    endloop
  endfacet
  facet normal 0.309018 0.951056 0
    outer loop
      vertex 2.30902 2.04894 10
      vertex 2.30902 2.04894 0
      vertex 1.19098 2.41221 10
    endloop
  endfacet
  facet normal 0.309018 0.951056 0
    outer loop
      vertex 1.19098 2.41221 10
      vertex 2.30902 2.04894 0
      vertex 1.19098 2.41221 0
    endloop
  endfacet
  facet normal 1 0 0
    outer loop
      vertex 1.19098 28.5878 0
      vertex 1.19098 28.5878 10
      vertex 1.19098 27.4122 10
    endloop
  endfacet
  facet normal 1 0 0
    outer loop
      vertex 1.19098 27.4122 0
      vertex 1.19098 28.5878 0
      vertex 1.19098 27.4122 10
    endloop
  endfacet
  facet normal 0.309018 -0.951056 0
    outer loop
      vertex 2.30902 28.9511 0
      vertex 2.30902 28.9511 10
      vertex 1.19098 28.5878 10
    endloop
  endfacet
  facet normal 0.309018 -0.951056 0
    outer loop
      vertex 1.19098 28.5878 0
      vertex 2.30902 28.9511 0
      vertex 1.19098 28.5878 10
    endloop
  endfacet
  facet normal -0.809017 -0.587785 0
    outer loop
      vertex 3 28 10
      vertex 2.30902 28.9511 10
      vertex 3 28 0
    endloop
  endfacet
  facet normal -0.809017 -0.587785 0
    outer loop
      vertex 3 28 0
      vertex 2.30902 28.9511 10
      vertex 2.30902 28.9511 0
    endloop
  endfacet
  facet normal -0.809017 0.587785 0
    outer loop
      vertex 3 28 10
      vertex 3 28 0
      vertex 2.30902 27.0489 10
    endloop
  endfacet
  facet normal -0.809017 0.587785 0
    outer loop
      vertex 2.30902 27.0489 10
      vertex 3 28 0
      vertex 2.30902 27.0489 0
    endloop
  endfacet
  facet normal 0.309018 0.951056 0
    outer loop
      vertex 2.30902 27.0489 10
      vertex 2.30902 27.0489 0
      vertex 1.19098 27.4122 10
    endloop
  endfacet
  facet normal 0.309018 0.951056 0
    outer loop
      vertex 1.19098 27.4122 10
      vertex 2.30902 27.0489 0
      vertex 1.19098 27.4122 0
    endloop
  endfacet
  facet normal 1 0 0
    outer loop
      vertex 37.521 3.58778 0
      vertex 37.521 3.58778 10
      vertex 37.521 2.41221 10
    endloop
  endfacet
  facet normal 1 0 0
    outer loop
      vertex 37.521 2.41221 0
      vertex 37.521 3.58778 0
      vertex 37.521 2.41221 10
    endloop
  endfacet
  facet normal 0.309018 -0.951056 0
    outer loop
      vertex 38.639 3.95106 0
      vertex 38.639 3.95106 10
      vertex 37.521 3.58778 10
    endloop
  endfacet
  facet normal 0.309018 -0.951056 0
    outer loop
      vertex 37.521 3.58778 0
      vertex 38.639 3.95106 0
      vertex 37.521 3.58778 10
    endloop
  endfacet
  facet normal -0.809017 -0.587785 0
    outer loop
      vertex 39.33 3 10
      vertex 38.639 3.95106 10
      vertex 39.33 3 0
    endloop
  endfacet
  facet normal -0.809017 -0.587785 0
    outer loop
      vertex 39.33 3 0
      vertex 38.639 3.95106 10
      vertex 38.639 3.95106 0
    endloop
  endfacet
  facet normal -0.809017 0.587785 0
    outer loop
      vertex 39.33 3 10
      vertex 39.33 3 0
      vertex 38.639 2.04894 10
    endloop
  endfacet
  facet normal -0.809017 0.587785 0
    outer loop
      vertex 38.639 2.04894 10
      vertex 39.33 3 0
      vertex 38.639 2.04894 0
    endloop
  endfacet
  facet normal 0.309018 0.951056 0
    outer loop
      vertex 38.639 2.04894 10
      vertex 38.639 2.04894 0
      vertex 37.521 2.41221 10
    endloop
  endfacet
  facet normal 0.309018 0.951056 0
    outer loop
      vertex 37.521 2.41221 10
      vertex 38.639 2.04894 0
      vertex 37.521 2.41221 0
    endloop
  endfacet
  facet normal 1 0 0
    outer loop
      vertex 37.521 28.5878 0
      vertex 37.521 28.5878 10
      vertex 37.521 27.4122 10
    endloop
  endfacet
  facet normal 1 0 0
    outer loop
      vertex 37.521 27.4122 0
      vertex 37.521 28.5878 0
      vertex 37.521 27.4122 10
    endloop
  endfacet
  facet normal 0.309018 -0.951056 0
    outer loop
      vertex 38.639 28.9511 0
      vertex 38.639 28.9511 10
      vertex 37.521 28.5878 10
    endloop
  endfacet
  facet normal 0.309018 -0.951056 0
    outer loop
      vertex 37.521 28.5878 0
      vertex 38.639 28.9511 0
      vertex 37.521 28.5878 10
    endloop
  endfacet
  facet normal -0.809017 -0.587785 0
    outer loop
      vertex 39.33 28 10
      vertex 38.639 28.9511 10
      vertex 39.33 28 0
    endloop
  endfacet
  facet normal -0.809017 -0.587785 0
    outer loop
      vertex 39.33 28 0
      vertex 38.639 28.9511 10
      vertex 38.639 28.9511 0
    endloop
  endfacet
  facet normal -0.809017 0.587785 0
    outer loop
      vertex 39.33 28 10
      vertex 39.33 28 0
      vertex 38.639 27.0489 10
    endloop
  endfacet
  facet normal -0.809017 0.587785 0
    outer loop
      vertex 38.639 27.0489 10
      vertex 39.33 28 0
      vertex 38.639 27.0489 0
    endloop
  endfacet
  facet normal 0.309018 0.951056 0
    outer loop
      vertex 38.639 27.0489 10
      vertex 38.639 27.0489 0
      vertex 37.521 27.4122 10
    endloop
  endfacet
  facet normal 0.309018 0.951056 0
    outer loop
      vertex 37.521 27.4122 10
      vertex 38.639 27.0489 0
      vertex 37.521 27.4122 0
    endloop
  endfacet
  facet normal 1 0 0
    outer loop
      vertex 18.3631 5 4.13223
      vertex 18.3631 5 5
      vertex 18.3631 5 5.86777
    endloop
  endfacet
  facet normal 1 0 0
    outer loop
      vertex 18.3631 2.5 4.13223
      vertex 18.3631 5 4.13223
      vertex 18.3631 2.5 5.86777
    endloop
  endfacet
  facet normal 1 0 0
    outer loop
      vertex 18.3631 2.5 5.86777
      vertex 18.3631 5 4.13223
      vertex 18.3631 5 5.86777
    endloop
  endfacet
  facet normal 0.62349 1.73601e-16 -0.781831
    outer loop
      vertex 19.72 5 6.94986
      vertex 19.72 2.5 6.94986
      vertex 18.3631 5 5.86777
    endloop
  endfacet
  facet normal 0.62349 1.73601e-16 -0.781831
    outer loop
      vertex 18.3631 5 5.86777
      vertex 19.72 2.5 6.94986
      vertex 18.3631 2.5 5.86777
    endloop
  endfacet
  facet normal 0.62349 -1.73601e-16 0.781831
    outer loop
      vertex 19.72 2.5 3.05014
      vertex 19.72 5 3.05014
      vertex 18.3631 5 4.13223
    endloop
  endfacet
  facet normal 0.62349 -1.73601e-16 0.781831
    outer loop
      vertex 18.3631 2.5 4.13223
      vertex 19.72 2.5 3.05014
      vertex 18.3631 5 4.13223
    endloop
  endfacet
  facet normal -0.222521 -2.16477e-16 0.974928
    outer loop
      vertex 21.412 2.5 3.43634
      vertex 21.412 5 3.43634
      vertex 19.72 5 3.05014
    endloop
  endfacet
  facet normal -0.222521 -2.16477e-16 0.974928
    outer loop
      vertex 19.72 2.5 3.05014
      vertex 21.412 2.5 3.43634
      vertex 19.72 5 3.05014
    endloop
  endfacet
  facet normal -0.900969 -9.63415e-17 0.433884
    outer loop
      vertex 22.165 5 5
      vertex 21.412 5 3.43634
      vertex 22.165 2.5 5
    endloop
  endfacet
  facet normal -0.900969 -9.63415e-17 0.433884
    outer loop
      vertex 22.165 2.5 5
      vertex 21.412 5 3.43634
      vertex 21.412 2.5 3.43634
    endloop
  endfacet
  facet normal -0.900969 9.63415e-17 -0.433884
    outer loop
      vertex 22.165 5 5
      vertex 22.165 2.5 5
      vertex 21.412 5 6.56366
    endloop
  endfacet
  facet normal -0.900969 9.63415e-17 -0.433884
    outer loop
      vertex 21.412 5 6.56366
      vertex 22.165 2.5 5
      vertex 21.412 2.5 6.56366
    endloop
  endfacet
  facet normal -0.222521 2.16477e-16 -0.974928
    outer loop
      vertex 21.412 5 6.56366
      vertex 21.412 2.5 6.56366
      vertex 19.72 5 6.94986
    endloop
  endfacet
  facet normal -0.222521 2.16477e-16 -0.974928
    outer loop
      vertex 19.72 5 6.94986
      vertex 21.412 2.5 6.56366
      vertex 19.72 2.5 6.94986
    endloop
  endfacet
  facet normal 0 -1 -2.22045e-16
    outer loop
      vertex 18.3631 5 5
      vertex 22.165 5 5
      vertex 21.412 5 6.56366
    endloop
  endfacet
  facet normal 0 -1 -2.22045e-16
    outer loop
      vertex 18.3631 5 5.86777
      vertex 18.3631 5 5
      vertex 19.72 5 6.94986
    endloop
  endfacet
  facet normal 0 -1 -2.22045e-16
    outer loop
      vertex 19.72 5 6.94986
      vertex 18.3631 5 5
      vertex 21.412 5 6.56366
    endloop
  endfacet
  facet normal -1 0 0
    outer loop
      vertex -20 -9 0
      vertex -20 -9 10
      vertex -20 20 0
    endloop
  endfacet
  facet normal -1 0 0
    outer loop
      vertex -20 20 0
      vertex -20 -9 10
      vertex -20 20 10
    endloop
  endfacet
  facet normal -0.951056 -0.309017 0
    outer loop
      vertex -20 -9 0
      vertex -19.809 -9.58778 0
      vertex -20 -9 10
    endloop
  endfacet
  facet normal -0.951056 -0.309017 0
    outer loop
      vertex -20 -9 10
      vertex -19.809 -9.58778 0
      vertex -19.809 -9.58778 10
    endloop
  endfacet
  facet normal 0 0 -1
    outer loop
      vertex -20 -9 0
      vertex -20 20 0
      vertex -19.809 -9.58778 0
    endloop
  endfacet
  facet normal 0 0 -1
    outer loop
      vertex -19.809 -9.58778 0
      vertex -20 20 0
      vertex -19.809 20.5878 0
    endloop
  endfacet
  facet normal 0 0 -1
    outer loop
      vertex -19.809 -9.58778 0
      vertex -19.809 20.5878 0
      vertex -19.309 20.9511 0
    endloop
  endfacet
  facet normal 0 0 -1
    outer loop
      vertex -19.809 -9.58778 0
      vertex -19.309 20.9511 0
      vertex -19 20.9511 0
    endloop
  endfacet
  facet normal 0 0 -1
    outer loop
      vertex -19 20.9511 0
      vertex -19 21 0
      vertex -17 21 0
    endloop
  endfacet
  facet normal 0 0 -1
    outer loop
      vertex -16 18 0
      vertex -17 21 0
      vertex -14 18 0
    endloop
  endfacet
  facet normal 0 0 -1
    outer loop
      vertex -16.309 17.9511 0
      vertex -17 21 0
      vertex -16 18 0
    endloop
  endfacet
  facet normal 0 0 -1
    outer loop
      vertex -17 -4 0
      vertex -18.809 -6.41221 0
      vertex -17 17 0
    endloop
  endfacet
  facet normal 0 0 -1
    outer loop
      vertex -16.809 17.5878 0
      vertex -17 21 0
      vertex -16.309 17.9511 0
    endloop
  endfacet
  facet normal 0 0 -1
    outer loop
      vertex -18.809 -6.41221 0
      vertex -19.809 -9.58778 0
      vertex -17 17 0
    endloop
  endfacet
  facet normal 0 0 -1
    outer loop
      vertex -17 18 0
      vertex -17 21 0
      vertex -16.809 17.5878 0
    endloop
  endfacet
  facet normal 0 0 -1
    outer loop
      vertex 69.191 -6.41221 0
      vertex 68.809 -4.58778 0
      vertex 69 -4 0
    endloop
  endfacet
  facet normal 0 0 -1
    outer loop
      vertex -19.809 -9.58778 0
      vertex -17 18 0
      vertex -17 17 0
    endloop
  endfacet
  facet normal 0 0 -1
    outer loop
      vertex 69.191 -6.41221 0
      vertex 69 -4 0
      vertex 70.309 -6.04894 0
    endloop
  endfacet
  facet normal 0 0 -1
    outer loop
      vertex 68 18 0
      vertex 68.309 17.9511 0
      vertex 68 17.9511 0
    endloop
  endfacet
  facet normal 0 0 -1
    outer loop
      vertex -17.691 -6.04894 0
      vertex -17 -4 0
      vertex -16.809 -4.58778 0
    endloop
  endfacet
  facet normal 0 0 -1
    outer loop
      vertex -17.691 -6.04894 0
      vertex -16 -5 0
      vertex -17 -7 0
    endloop
  endfacet
  facet normal 0 0 -1
    outer loop
      vertex -17.691 -6.04894 0
      vertex -16 -4.95106 0
      vertex -16 -5 0
    endloop
  endfacet
  facet normal 0 0 -1
    outer loop
      vertex -17.691 -7.95106 0
      vertex 20.5 -5 0
      vertex -19.809 -9.58778 0
    endloop
  endfacet
  facet normal 0 0 -1
    outer loop
      vertex -19.809 -9.58778 0
      vertex 20.5 -5 0
      vertex 20.5 -7.5 0
    endloop
  endfacet
  facet normal 0 0 -1
    outer loop
      vertex -19.809 -9.58778 0
      vertex 20.5 -7.5 0
      vertex 30.5 -7.5 0
    endloop
  endfacet
  facet normal 0 0 -1
    outer loop
      vertex 30.5 -7.5 0
      vertex 30.5 -5 0
      vertex 68 -5 0
    endloop
  endfacet
  facet normal 0 0 -1
    outer loop
      vertex 30.5 -7.5 0
      vertex 72 -9 0
      vertex -19.809 -9.58778 0
    endloop
  endfacet
  facet normal 0 0 -1
    outer loop
      vertex -19.309 -9.95106 0
      vertex -19.809 -9.58778 0
      vertex -19 -9.95106 0
    endloop
  endfacet
  facet normal 0 0 -1
    outer loop
      vertex 68 -5 0
      vertex 68 -4.95106 0
      vertex 68.309 -4.95106 0
    endloop
  endfacet
  facet normal 0 0 -1
    outer loop
      vertex 69.191 -7.58778 0
      vertex 72 -9 0
      vertex 30.5 -7.5 0
    endloop
  endfacet
  facet normal 0 0 -1
    outer loop
      vertex 68.809 17.5878 0
      vertex 69 21 0
      vertex 69 17 0
    endloop
  endfacet
  facet normal 0 0 -1
    outer loop
      vertex 69 21 0
      vertex 68 18 0
      vertex 66 18 0
    endloop
  endfacet
  facet normal 0 0 -1
    outer loop
      vertex 68.309 17.9511 0
      vertex 68 18 0
      vertex 69 21 0
    endloop
  endfacet
  facet normal 0 0 -1
    outer loop
      vertex 68.309 17.9511 0
      vertex 69 21 0
      vertex 68.809 17.5878 0
    endloop
  endfacet
  facet normal 0 0 -1
    outer loop
      vertex 69.191 18.5878 0
      vertex 69 21 0
      vertex 71 21 0
    endloop
  endfacet
  facet normal 0 0 -1
    outer loop
      vertex 70.309 18.9511 0
      vertex 71 20.9511 0
      vertex 71 18 0
    endloop
  endfacet
  facet normal 0 0 -1
    outer loop
      vertex 71 18 0
      vertex 71 20.9511 0
      vertex 71.309 20.9511 0
    endloop
  endfacet
  facet normal 0 0 -1
    outer loop
      vertex 69 -4 0
      vertex 71.309 20.9511 0
      vertex 71.809 20.5878 0
    endloop
  endfacet
  facet normal 0 0 -1
    outer loop
      vertex 69 -4 0
      vertex 71.809 20.5878 0
      vertex 72 20 0
    endloop
  endfacet
  facet normal 0 0 -1
    outer loop
      vertex 71 -7 0
      vertex 72 20 0
      vertex 72 -9 0
    endloop
  endfacet
  facet normal 0 0 -1
    outer loop
      vertex -19.809 -9.58778 0
      vertex 72 -9 0
      vertex 71.809 -9.58778 0
    endloop
  endfacet
  facet normal 0 0 -1
    outer loop
      vertex -19.809 -9.58778 0
      vertex 71.809 -9.58778 0
      vertex 71.309 -9.95106 0
    endloop
  endfacet
  facet normal 0 0 -1
    outer loop
      vertex -19.809 -9.58778 0
      vertex 71.309 -9.95106 0
      vertex 71 -9.95106 0
    endloop
  endfacet
  facet normal 0 0 -1
    outer loop
      vertex -19.809 -9.58778 0
      vertex 71 -9.95106 0
      vertex 71 -10 0
    endloop
  endfacet
  facet normal 0 0 -1
    outer loop
      vertex -19 -9.95106 0
      vertex 71 -10 0
      vertex -19 -10 0
    endloop
  endfacet
  facet normal 0 0 -1
    outer loop
      vertex -19.809 -9.58778 0
      vertex 71 -10 0
      vertex -19 -9.95106 0
    endloop
  endfacet
  facet normal 0 0 -1
    outer loop
      vertex -18.809 -6.41221 0
      vertex -17 -4 0
      vertex -17.691 -6.04894 0
    endloop
  endfacet
  facet normal 0 0 -1
    outer loop
      vertex -17.691 -7.95106 0
      vertex -19.809 -9.58778 0
      vertex -18.809 -7.58778 0
    endloop
  endfacet
  facet normal 0 0 -1
    outer loop
      vertex -19.809 -9.58778 0
      vertex -18.809 -6.41221 0
      vertex -18.809 -7.58778 0
    endloop
  endfacet
  facet normal 0 0 -1
    outer loop
      vertex -17.691 -6.04894 0
      vertex -16.809 -4.58778 0
      vertex -16.309 -4.95106 0
    endloop
  endfacet
  facet normal 0 0 -1
    outer loop
      vertex -17 -7 0
      vertex 20.5 -5 0
      vertex -17.691 -7.95106 0
    endloop
  endfacet
  facet normal 0 0 -1
    outer loop
      vertex -17.691 -6.04894 0
      vertex -16.309 -4.95106 0
      vertex -16 -4.95106 0
    endloop
  endfacet
  facet normal 0 0 -1
    outer loop
      vertex -16 -5 0
      vertex 20.5 -5 0
      vertex -17 -7 0
    endloop
  endfacet
  facet normal 0 0 -1
    outer loop
      vertex -18.809 18.5878 0
      vertex -17 21 0
      vertex -17.691 18.9511 0
    endloop
  endfacet
  facet normal 0 0 -1
    outer loop
      vertex -19 20.9511 0
      vertex -17 21 0
      vertex -18.809 18.5878 0
    endloop
  endfacet
  facet normal 0 0 -1
    outer loop
      vertex -19 20.9511 0
      vertex -18.809 18.5878 0
      vertex -19.809 -9.58778 0
    endloop
  endfacet
  facet normal 0 0 -1
    outer loop
      vertex -17 18 0
      vertex -19.809 -9.58778 0
      vertex -17.691 17.0489 0
    endloop
  endfacet
  facet normal 0 0 -1
    outer loop
      vertex -18.809 18.5878 0
      vertex -18.809 17.4122 0
      vertex -19.809 -9.58778 0
    endloop
  endfacet
  facet normal 0 0 -1
    outer loop
      vertex 69.191 -6.41221 0
      vertex 68 -5 0
      vertex 68.309 -4.95106 0
    endloop
  endfacet
  facet normal 0 0 -1
    outer loop
      vertex -18.809 17.4122 0
      vertex -17.691 17.0489 0
      vertex -19.809 -9.58778 0
    endloop
  endfacet
  facet normal 0 0 -1
    outer loop
      vertex -17.691 18.9511 0
      vertex -17 21 0
      vertex -17 18 0
    endloop
  endfacet
  facet normal 0 0 -1
    outer loop
      vertex -17 17 0
      vertex -17 18 0
      vertex -16.809 17.5878 0
    endloop
  endfacet
  facet normal 0 0 -1
    outer loop
      vertex 69.191 -6.41221 0
      vertex 68.309 -4.95106 0
      vertex 68.809 -4.58778 0
    endloop
  endfacet
  facet normal 0 0 -1
    outer loop
      vertex 71 -7 0
      vertex 72 -9 0
      vertex 70.309 -7.95106 0
    endloop
  endfacet
  facet normal 0 0 -1
    outer loop
      vertex 68 -5 0
      vertex 69.191 -6.41221 0
      vertex 30.5 -7.5 0
    endloop
  endfacet
  facet normal 0 0 -1
    outer loop
      vertex 70.309 -7.95106 0
      vertex 72 -9 0
      vertex 69.191 -7.58778 0
    endloop
  endfacet
  facet normal 0 0 -1
    outer loop
      vertex 69.191 -6.41221 0
      vertex 69.191 -7.58778 0
      vertex 30.5 -7.5 0
    endloop
  endfacet
  facet normal 0 0 -1
    outer loop
      vertex 69 -4 0
      vertex 72 20 0
      vertex 71 -7 0
    endloop
  endfacet
  facet normal 0 0 -1
    outer loop
      vertex 69.191 18.5878 0
      vertex 71 21 0
      vertex 70.309 18.9511 0
    endloop
  endfacet
  facet normal 0 0 -1
    outer loop
      vertex 69 -4 0
      vertex 71 -7 0
      vertex 70.309 -6.04894 0
    endloop
  endfacet
  facet normal 0 0 -1
    outer loop
      vertex 69 17 0
      vertex 69 21 0
      vertex 69.191 18.5878 0
    endloop
  endfacet
  facet normal 0 0 -1
    outer loop
      vertex 70.309 17.0489 0
      vertex 69 17 0
      vertex 69.191 17.4122 0
    endloop
  endfacet
  facet normal 0 0 -1
    outer loop
      vertex 69 17 0
      vertex 69.191 18.5878 0
      vertex 69.191 17.4122 0
    endloop
  endfacet
  facet normal 0 0 -1
    outer loop
      vertex 69 17 0
      vertex 70.309 17.0489 0
      vertex 69 -4 0
    endloop
  endfacet
  facet normal 0 0 -1
    outer loop
      vertex 70.309 18.9511 0
      vertex 71 21 0
      vertex 71 20.9511 0
    endloop
  endfacet
  facet normal 0 0 -1
    outer loop
      vertex 69 -4 0
      vertex 71 18 0
      vertex 71.309 20.9511 0
    endloop
  endfacet
  facet normal 0 0 -1
    outer loop
      vertex 71 18 0
      vertex 69 -4 0
      vertex 70.309 17.0489 0
    endloop
  endfacet
  facet normal 0 0 -1
    outer loop
      vertex -16.309 17.9511 0
      vertex -16 18 0
      vertex -16 17.9511 0
    endloop
  endfacet
  facet normal -0.951056 0.309017 0
    outer loop
      vertex -20 20 0
      vertex -20 20 10
      vertex -19.809 20.5878 0
    endloop
  endfacet
  facet normal -0.951056 0.309017 0
    outer loop
      vertex -19.809 20.5878 0
      vertex -20 20 10
      vertex -19.809 20.5878 10
    endloop
  endfacet
  facet normal 0 0 1
    outer loop
      vertex -20 20 10
      vertex -20 -9 10
      vertex -19.809 -9.58778 10
    endloop
  endfacet
  facet normal 0 0 1
    outer loop
      vertex -19 -9.95106 10
      vertex -20 20 10
      vertex -19.309 -9.95106 10
    endloop
  endfacet
  facet normal 0 0 1
    outer loop
      vertex -19.309 -9.95106 10
      vertex -20 20 10
      vertex -19.809 -9.58778 10
    endloop
  endfacet
  facet normal 0 0 1
    outer loop
      vertex -18.809 -7.58778 10
      vertex -20 20 10
      vertex -19 -9.95106 10
    endloop
  endfacet
  facet normal 0 0 1
    outer loop
      vertex 71 -10 10
      vertex -19 -9.95106 10
      vertex -19 -10 10
    endloop
  endfacet
  facet normal 0 0 1
    outer loop
      vertex -17 -4 10
      vertex -18.809 17.4122 10
      vertex -20 20 10
    endloop
  endfacet
  facet normal 0 0 1
    outer loop
      vertex -17 -4 10
      vertex -17.691 17.0489 10
      vertex -18.809 17.4122 10
    endloop
  endfacet
  facet normal 0 0 1
    outer loop
      vertex -17 -4 10
      vertex -17 17 10
      vertex -17.691 17.0489 10
    endloop
  endfacet
  facet normal 0 0 1
    outer loop
      vertex 68 17.9511 10
      vertex 68.309 17.9511 10
      vertex 68 18 10
    endloop
  endfacet
  facet normal 0 0 1
    outer loop
      vertex 69 17 10
      vertex 71 -7 10
      vertex 72 -9 10
    endloop
  endfacet
  facet normal 0 0 1
    outer loop
      vertex 69 17 10
      vertex 70.309 -6.04894 10
      vertex 71 -7 10
    endloop
  endfacet
  facet normal 0 0 1
    outer loop
      vertex 69.191 -7.58778 10
      vertex 71.309 -9.95106 10
      vertex 71.809 -9.58778 10
    endloop
  endfacet
  facet normal 0 0 1
    outer loop
      vertex 69.191 -7.58778 10
      vertex 71 -9.95106 10
      vertex 71.309 -9.95106 10
    endloop
  endfacet
  facet normal 0 0 1
    outer loop
      vertex 72 20 10
      vertex 66 18 10
      vertex 68 18 10
    endloop
  endfacet
  facet normal 0 0 1
    outer loop
      vertex 69.191 -7.58778 10
      vertex 71 -10 10
      vertex 71 -9.95106 10
    endloop
  endfacet
  facet normal 0 0 1
    outer loop
      vertex 69.191 18.5878 10
      vertex 68 18 10
      vertex 68.309 17.9511 10
    endloop
  endfacet
  facet normal 0 0 1
    outer loop
      vertex 69.191 -7.58778 10
      vertex 30.5 -5 10
      vertex 71 -10 10
    endloop
  endfacet
  facet normal 0 0 1
    outer loop
      vertex 70.309 17.0489 10
      vertex 69 17 10
      vertex 72 -9 10
    endloop
  endfacet
  facet normal 0 0 1
    outer loop
      vertex 69.191 17.4122 10
      vertex 68.809 17.5878 10
      vertex 69 17 10
    endloop
  endfacet
  facet normal 0 0 1
    outer loop
      vertex 69.191 -6.41221 10
      vertex 69 -4 10
      vertex 68.809 -4.58778 10
    endloop
  endfacet
  facet normal 0 0 1
    outer loop
      vertex -17.691 18.9511 10
      vertex -17 18 10
      vertex -16.309 17.9511 10
    endloop
  endfacet
  facet normal 0 0 1
    outer loop
      vertex 71 -7 10
      vertex 70.309 -7.95106 10
      vertex 72 -9 10
    endloop
  endfacet
  facet normal 0 0 1
    outer loop
      vertex -17.691 18.9511 10
      vertex -16.309 17.9511 10
      vertex -16 17.9511 10
    endloop
  endfacet
  facet normal 0 0 1
    outer loop
      vertex 69.191 17.4122 10
      vertex 68.309 17.9511 10
      vertex 68.809 17.5878 10
    endloop
  endfacet
  facet normal 0 0 1
    outer loop
      vertex -17.691 -7.95106 10
      vertex -18.809 -7.58778 10
      vertex -19 -9.95106 10
    endloop
  endfacet
  facet normal 0 0 1
    outer loop
      vertex 69.191 17.4122 10
      vertex 69.191 18.5878 10
      vertex 68.309 17.9511 10
    endloop
  endfacet
  facet normal 0 0 1
    outer loop
      vertex -18.809 18.5878 10
      vertex -17.691 18.9511 10
      vertex -20 20 10
    endloop
  endfacet
  facet normal 0 0 1
    outer loop
      vertex -16 -4.95106 10
      vertex -16.309 -4.95106 10
      vertex -16 -5 10
    endloop
  endfacet
  facet normal 0 0 1
    outer loop
      vertex 71 -10 10
      vertex 30.5 -7.5 10
      vertex -19 -9.95106 10
    endloop
  endfacet
  facet normal 0 0 1
    outer loop
      vertex 71 -10 10
      vertex 30.5 -5 10
      vertex 30.5 -7.5 10
    endloop
  endfacet
  facet normal 0 0 1
    outer loop
      vertex 30.5 -7.5 10
      vertex 20.5 -7.5 10
      vertex -19 -9.95106 10
    endloop
  endfacet
  facet normal 0 0 1
    outer loop
      vertex 69.191 -6.41221 10
      vertex 68.309 -4.95106 10
      vertex 68 -4.95106 10
    endloop
  endfacet
  facet normal 0 0 1
    outer loop
      vertex -16.809 17.5878 10
      vertex -16.309 17.9511 10
      vertex -17 18 10
    endloop
  endfacet
  facet normal 0 0 1
    outer loop
      vertex 69.191 -6.41221 10
      vertex 68.809 -4.58778 10
      vertex 68.309 -4.95106 10
    endloop
  endfacet
  facet normal 0 0 1
    outer loop
      vertex -17.691 -6.04894 10
      vertex -17 -7 10
      vertex -16 -5 10
    endloop
  endfacet
  facet normal 0 0 1
    outer loop
      vertex -17.691 -6.04894 10
      vertex -16 -5 10
      vertex -16.309 -4.95106 10
    endloop
  endfacet
  facet normal 0 0 1
    outer loop
      vertex 69.191 -6.41221 10
      vertex 70.309 -6.04894 10
      vertex 69 -4 10
    endloop
  endfacet
  facet normal 0 0 1
    outer loop
      vertex -17 18 10
      vertex -17.691 17.0489 10
      vertex -17 17 10
    endloop
  endfacet
  facet normal 0 0 1
    outer loop
      vertex 20.5 -7.5 10
      vertex 20.5 -5 10
      vertex -19 -9.95106 10
    endloop
  endfacet
  facet normal 0 0 1
    outer loop
      vertex -19 20.9511 10
      vertex -20 20 10
      vertex -17 21 10
    endloop
  endfacet
  facet normal 0 0 1
    outer loop
      vertex -17.691 -6.04894 10
      vertex -16.809 -4.58778 10
      vertex -17 -4 10
    endloop
  endfacet
  facet normal 0 0 1
    outer loop
      vertex -19 21 10
      vertex -19 20.9511 10
      vertex -17 21 10
    endloop
  endfacet
  facet normal 0 0 1
    outer loop
      vertex -17.691 -6.04894 10
      vertex -16.309 -4.95106 10
      vertex -16.809 -4.58778 10
    endloop
  endfacet
  facet normal 0 0 1
    outer loop
      vertex -19.809 20.5878 10
      vertex -20 20 10
      vertex -19.309 20.9511 10
    endloop
  endfacet
  facet normal 0 0 1
    outer loop
      vertex -18.809 -6.41221 10
      vertex -20 20 10
      vertex -18.809 -7.58778 10
    endloop
  endfacet
  facet normal 0 0 1
    outer loop
      vertex -17 -4 10
      vertex -20 20 10
      vertex -18.809 -6.41221 10
    endloop
  endfacet
  facet normal 0 0 1
    outer loop
      vertex -18.809 -6.41221 10
      vertex -17.691 -6.04894 10
      vertex -17 -4 10
    endloop
  endfacet
  facet normal 0 0 1
    outer loop
      vertex 20.5 -5 10
      vertex -17 -7 10
      vertex -19 -9.95106 10
    endloop
  endfacet
  facet normal 0 0 1
    outer loop
      vertex 20.5 -5 10
      vertex -16 -5 10
      vertex -17 -7 10
    endloop
  endfacet
  facet normal 0 0 1
    outer loop
      vertex -17 -7 10
      vertex -17.691 -7.95106 10
      vertex -19 -9.95106 10
    endloop
  endfacet
  facet normal 0 0 1
    outer loop
      vertex -17.691 18.9511 10
      vertex -16 17.9511 10
      vertex -16 18 10
    endloop
  endfacet
  facet normal 0 0 1
    outer loop
      vertex -17 18 10
      vertex -17 17 10
      vertex -16.809 17.5878 10
    endloop
  endfacet
  facet normal 0 0 1
    outer loop
      vertex -18.809 18.5878 10
      vertex -20 20 10
      vertex -18.809 17.4122 10
    endloop
  endfacet
  facet normal 0 0 1
    outer loop
      vertex 69.191 -6.41221 10
      vertex 68 -4.95106 10
      vertex 68 -5 10
    endloop
  endfacet
  facet normal 0 0 1
    outer loop
      vertex -14 18 10
      vertex -20 20 10
      vertex -17.691 18.9511 10
    endloop
  endfacet
  facet normal 0 0 1
    outer loop
      vertex -16 18 10
      vertex -14 18 10
      vertex -17.691 18.9511 10
    endloop
  endfacet
  facet normal 0 0 1
    outer loop
      vertex 70.309 -7.95106 10
      vertex 69.191 -7.58778 10
      vertex 72 -9 10
    endloop
  endfacet
  facet normal 0 0 1
    outer loop
      vertex -14 18 10
      vertex -17 21 10
      vertex -20 20 10
    endloop
  endfacet
  facet normal 0 0 1
    outer loop
      vertex 68 -5 10
      vertex 69.191 -7.58778 10
      vertex 69.191 -6.41221 10
    endloop
  endfacet
  facet normal 0 0 1
    outer loop
      vertex 70.309 17.0489 10
      vertex 69.191 17.4122 10
      vertex 69 17 10
    endloop
  endfacet
  facet normal 0 0 1
    outer loop
      vertex 69.191 -7.58778 10
      vertex 71.809 -9.58778 10
      vertex 72 -9 10
    endloop
  endfacet
  facet normal 0 0 1
    outer loop
      vertex 69.191 18.5878 10
      vertex 70.309 18.9511 10
      vertex 72 20 10
    endloop
  endfacet
  facet normal 0 0 1
    outer loop
      vertex 72 20 10
      vertex 68 18 10
      vertex 69.191 18.5878 10
    endloop
  endfacet
  facet normal 0 0 1
    outer loop
      vertex 70.309 18.9511 10
      vertex 71 18 10
      vertex 72 20 10
    endloop
  endfacet
  facet normal 0 0 1
    outer loop
      vertex 72 20 10
      vertex 71 18 10
      vertex 72 -9 10
    endloop
  endfacet
  facet normal 0 0 1
    outer loop
      vertex 71 18 10
      vertex 70.309 17.0489 10
      vertex 72 -9 10
    endloop
  endfacet
  facet normal 0 0 1
    outer loop
      vertex -19 20.9511 10
      vertex -19.309 20.9511 10
      vertex -20 20 10
    endloop
  endfacet
  facet normal 0 0 1
    outer loop
      vertex 69 21 10
      vertex 71 20.9511 10
      vertex 71 21 10
    endloop
  endfacet
  facet normal 0 0 1
    outer loop
      vertex 71 20.9511 10
      vertex 71.809 20.5878 10
      vertex 71.309 20.9511 10
    endloop
  endfacet
  facet normal 0 0 1
    outer loop
      vertex 69 21 10
      vertex 71.809 20.5878 10
      vertex 71 20.9511 10
    endloop
  endfacet
  facet normal 0 0 1
    outer loop
      vertex 69 21 10
      vertex 72 20 10
      vertex 71.809 20.5878 10
    endloop
  endfacet
  facet normal 0 0 1
    outer loop
      vertex 69 21 10
      vertex 66 18 10
      vertex 72 20 10
    endloop
  endfacet
  facet normal 0 0 1
    outer loop
      vertex 69 17 10
      vertex 69 -4 10
      vertex 70.309 -6.04894 10
    endloop
  endfacet
  facet normal 0 0 1
    outer loop
      vertex 68 -5 10
      vertex 30.5 -5 10
      vertex 69.191 -7.58778 10
    endloop
  endfacet
  facet normal -0.587786 -0.809016 0
    outer loop
      vertex -19.809 -9.58778 10
      vertex -19.809 -9.58778 0
      vertex -19.309 -9.95106 0
    endloop
  endfacet
  facet normal -0.587786 -0.809016 0
    outer loop
      vertex -19.309 -9.95106 10
      vertex -19.809 -9.58778 10
      vertex -19.309 -9.95106 0
    endloop
  endfacet
  facet normal 0 -1 0
    outer loop
      vertex -19.309 -9.95106 10
      vertex -19.309 -9.95106 0
      vertex -19 -9.95106 0
    endloop
  endfacet
  facet normal 0 -1 0
    outer loop
      vertex -19 -9.95106 10
      vertex -19.309 -9.95106 10
      vertex -19 -9.95106 0
    endloop
  endfacet
  facet normal -1 0 0
    outer loop
      vertex -19 -9.95106 10
      vertex -19 -9.95106 0
      vertex -19 -10 10
    endloop
  endfacet
  facet normal -1 0 0
    outer loop
      vertex -19 -10 10
      vertex -19 -9.95106 0
      vertex -19 -10 0
    endloop
  endfacet
  facet normal 0 -1 0
    outer loop
      vertex 23.6981 -10 5
      vertex -19 -10 0
      vertex 71 -10 0
    endloop
  endfacet
  facet normal 0 -1 0
    outer loop
      vertex 23.6981 -10 5
      vertex 23.6981 -10 5.86777
      vertex -19 -10 10
    endloop
  endfacet
  facet normal 0 -1 0
    outer loop
      vertex -19 -10 10
      vertex -19 -10 0
      vertex 23.6981 -10 5
    endloop
  endfacet
  facet normal 0 -1 0
    outer loop
      vertex 25.055 -10 6.94986
      vertex -19 -10 10
      vertex 23.6981 -10 5.86777
    endloop
  endfacet
  facet normal 0 -1 0
    outer loop
      vertex 71 -10 10
      vertex -19 -10 10
      vertex 25.055 -10 6.94986
    endloop
  endfacet
  facet normal 0 -1 0
    outer loop
      vertex 71 -10 10
      vertex 25.055 -10 6.94986
      vertex 26.747 -10 6.56366
    endloop
  endfacet
  facet normal 0 -1 0
    outer loop
      vertex 26.747 -10 6.56366
      vertex 71 -10 0
      vertex 71 -10 10
    endloop
  endfacet
  facet normal 0 -1 0
    outer loop
      vertex 27.5 -10 5
      vertex 23.6981 -10 5
      vertex 71 -10 0
    endloop
  endfacet
  facet normal 0 -1 0
    outer loop
      vertex 26.747 -10 6.56366
      vertex 27.5 -10 5
      vertex 71 -10 0
    endloop
  endfacet
  facet normal 1 0 0
    outer loop
      vertex 71 -9.95106 0
      vertex 71 -9.95106 10
      vertex 71 -10 10
    endloop
  endfacet
  facet normal 1 0 0
    outer loop
      vertex 71 -10 0
      vertex 71 -9.95106 0
      vertex 71 -10 10
    endloop
  endfacet
  facet normal 0 -1 0
    outer loop
      vertex 71 -9.95106 10
      vertex 71 -9.95106 0
      vertex 71.309 -9.95106 0
    endloop
  endfacet
  facet normal 0 -1 0
    outer loop
      vertex 71.309 -9.95106 10
      vertex 71 -9.95106 10
      vertex 71.309 -9.95106 0
    endloop
  endfacet
  facet normal 0.587786 -0.809016 0
    outer loop
      vertex 71.309 -9.95106 10
      vertex 71.309 -9.95106 0
      vertex 71.809 -9.58778 0
    endloop
  endfacet
  facet normal 0.587786 -0.809016 0
    outer loop
      vertex 71.809 -9.58778 10
      vertex 71.309 -9.95106 10
      vertex 71.809 -9.58778 0
    endloop
  endfacet
  facet normal 0.951056 -0.309017 0
    outer loop
      vertex 71.809 -9.58778 10
      vertex 71.809 -9.58778 0
      vertex 72 -9 0
    endloop
  endfacet
  facet normal 0.951056 -0.309017 0
    outer loop
      vertex 72 -9 10
      vertex 71.809 -9.58778 10
      vertex 72 -9 0
    endloop
  endfacet
  facet normal 1 0 0
    outer loop
      vertex 72 -9 10
      vertex 72 -9 0
      vertex 72 20 0
    endloop
  endfacet
  facet normal 1 0 0
    outer loop
      vertex 72 20 10
      vertex 72 -9 10
      vertex 72 20 0
    endloop
  endfacet
  facet normal 0.951056 0.309017 0
    outer loop
      vertex 72 20 0
      vertex 71.809 20.5878 0
      vertex 71.809 20.5878 10
    endloop
  endfacet
  facet normal 0.951056 0.309017 0
    outer loop
      vertex 72 20 10
      vertex 72 20 0
      vertex 71.809 20.5878 10
    endloop
  endfacet
  facet normal 0.587786 0.809016 0
    outer loop
      vertex 71.309 20.9511 0
      vertex 71.309 20.9511 10
      vertex 71.809 20.5878 0
    endloop
  endfacet
  facet normal 0.587786 0.809016 0
    outer loop
      vertex 71.809 20.5878 0
      vertex 71.309 20.9511 10
      vertex 71.809 20.5878 10
    endloop
  endfacet
  facet normal 0 1 0
    outer loop
      vertex 71 20.9511 0
      vertex 71 20.9511 10
      vertex 71.309 20.9511 0
    endloop
  endfacet
  facet normal 0 1 0
    outer loop
      vertex 71.309 20.9511 0
      vertex 71 20.9511 10
      vertex 71.309 20.9511 10
    endloop
  endfacet
  facet normal 1 0 0
    outer loop
      vertex 71 21 0
      vertex 71 21 10
      vertex 71 20.9511 10
    endloop
  endfacet
  facet normal 1 0 0
    outer loop
      vertex 71 20.9511 0
      vertex 71 21 0
      vertex 71 20.9511 10
    endloop
  endfacet
  facet normal 0 1 0
    outer loop
      vertex 69 21 0
      vertex 69 21 10
      vertex 71 21 0
    endloop
  endfacet
  facet normal 0 1 0
    outer loop
      vertex 71 21 0
      vertex 69 21 10
      vertex 71 21 10
    endloop
  endfacet
  facet normal -0.707107 0.707107 0
    outer loop
      vertex 69 21 10
      vertex 69 21 0
      vertex 66 18 10
    endloop
  endfacet
  facet normal -0.707107 0.707107 0
    outer loop
      vertex 66 18 10
      vertex 69 21 0
      vertex 66 18 0
    endloop
  endfacet
  facet normal 0 -1 0
    outer loop
      vertex 68 18 0
      vertex 68 18 10
      vertex 66 18 10
    endloop
  endfacet
  facet normal 0 -1 0
    outer loop
      vertex 66 18 0
      vertex 68 18 0
      vertex 66 18 10
    endloop
  endfacet
  facet normal -1 0 0
    outer loop
      vertex 68 17.9511 0
      vertex 68 17.9511 10
      vertex 68 18 0
    endloop
  endfacet
  facet normal -1 0 0
    outer loop
      vertex 68 18 0
      vertex 68 17.9511 10
      vertex 68 18 10
    endloop
  endfacet
  facet normal 0 -1 0
    outer loop
      vertex 68.309 17.9511 0
      vertex 68.309 17.9511 10
      vertex 68 17.9511 10
    endloop
  endfacet
  facet normal 0 -1 0
    outer loop
      vertex 68 17.9511 0
      vertex 68.309 17.9511 0
      vertex 68 17.9511 10
    endloop
  endfacet
  facet normal -0.587786 -0.809016 0
    outer loop
      vertex 68.809 17.5878 0
      vertex 68.809 17.5878 10
      vertex 68.309 17.9511 10
    endloop
  endfacet
  facet normal -0.587786 -0.809016 0
    outer loop
      vertex 68.309 17.9511 0
      vertex 68.809 17.5878 0
      vertex 68.309 17.9511 10
    endloop
  endfacet
  facet normal -0.951056 -0.309017 0
    outer loop
      vertex 69 17 10
      vertex 68.809 17.5878 10
      vertex 69 17 0
    endloop
  endfacet
  facet normal -0.951056 -0.309017 0
    outer loop
      vertex 69 17 0
      vertex 68.809 17.5878 10
      vertex 68.809 17.5878 0
    endloop
  endfacet
  facet normal -1 0 0
    outer loop
      vertex 69 17 10
      vertex 69 17 0
      vertex 69 -4 10
    endloop
  endfacet
  facet normal -1 0 0
    outer loop
      vertex 69 -4 10
      vertex 69 17 0
      vertex 69 -4 0
    endloop
  endfacet
  facet normal -0.951056 0.309017 0
    outer loop
      vertex 69 -4 10
      vertex 69 -4 0
      vertex 68.809 -4.58778 10
    endloop
  endfacet
  facet normal -0.951056 0.309017 0
    outer loop
      vertex 68.809 -4.58778 10
      vertex 69 -4 0
      vertex 68.809 -4.58778 0
    endloop
  endfacet
  facet normal -0.587786 0.809016 0
    outer loop
      vertex 68.809 -4.58778 10
      vertex 68.809 -4.58778 0
      vertex 68.309 -4.95106 10
    endloop
  endfacet
  facet normal -0.587786 0.809016 0
    outer loop
      vertex 68.309 -4.95106 10
      vertex 68.809 -4.58778 0
      vertex 68.309 -4.95106 0
    endloop
  endfacet
  facet normal 0 1 0
    outer loop
      vertex 68.309 -4.95106 10
      vertex 68.309 -4.95106 0
      vertex 68 -4.95106 10
    endloop
  endfacet
  facet normal 0 1 0
    outer loop
      vertex 68 -4.95106 10
      vertex 68.309 -4.95106 0
      vertex 68 -4.95106 0
    endloop
  endfacet
  facet normal -1 0 0
    outer loop
      vertex 68 -5 0
      vertex 68 -5 10
      vertex 68 -4.95106 0
    endloop
  endfacet
  facet normal -1 0 0
    outer loop
      vertex 68 -4.95106 0
      vertex 68 -5 10
      vertex 68 -4.95106 10
    endloop
  endfacet
  facet normal 0 1 0
    outer loop
      vertex 68 -5 10
      vertex 68 -5 0
      vertex 30.5 -5 10
    endloop
  endfacet
  facet normal 0 1 0
    outer loop
      vertex 30.5 -5 10
      vertex 68 -5 0
      vertex 30.5 -5 0
    endloop
  endfacet
  facet normal -1 0 0
    outer loop
      vertex 30.5 -5 10
      vertex 30.5 -5 0
      vertex 30.5 -7.5 10
    endloop
  endfacet
  facet normal -1 0 0
    outer loop
      vertex 30.5 -7.5 10
      vertex 30.5 -5 0
      vertex 30.5 -7.5 0
    endloop
  endfacet
  facet normal 0 1 0
    outer loop
      vertex 23.6981 -7.5 5.86777
      vertex 20.5 -7.5 10
      vertex 25.055 -7.5 6.94986
    endloop
  endfacet
  facet normal 0 1 0
    outer loop
      vertex 25.055 -7.5 3.05014
      vertex 30.5 -7.5 0
      vertex 20.5 -7.5 0
    endloop
  endfacet
  facet normal 0 1 0
    outer loop
      vertex 27.5 -7.5 5
      vertex 30.5 -7.5 0
      vertex 26.747 -7.5 3.43634
    endloop
  endfacet
  facet normal 0 1 0
    outer loop
      vertex 20.5 -7.5 10
      vertex 23.6981 -7.5 4.13223
      vertex 20.5 -7.5 0
    endloop
  endfacet
  facet normal 0 1 0
    outer loop
      vertex 23.6981 -7.5 4.13223
      vertex 25.055 -7.5 3.05014
      vertex 20.5 -7.5 0
    endloop
  endfacet
  facet normal 0 1 0
    outer loop
      vertex 30.5 -7.5 10
      vertex 30.5 -7.5 0
      vertex 27.5 -7.5 5
    endloop
  endfacet
  facet normal 0 1 0
    outer loop
      vertex 30.5 -7.5 10
      vertex 27.5 -7.5 5
      vertex 26.747 -7.5 6.56366
    endloop
  endfacet
  facet normal 0 1 0
    outer loop
      vertex 30.5 -7.5 10
      vertex 26.747 -7.5 6.56366
      vertex 20.5 -7.5 10
    endloop
  endfacet
  facet normal 0 1 0
    outer loop
      vertex 26.747 -7.5 6.56366
      vertex 25.055 -7.5 6.94986
      vertex 20.5 -7.5 10
    endloop
  endfacet
  facet normal 0 1 0
    outer loop
      vertex 20.5 -7.5 10
      vertex 23.6981 -7.5 5.86777
      vertex 23.6981 -7.5 4.13223
    endloop
  endfacet
  facet normal 0 1 0
    outer loop
      vertex 26.747 -7.5 3.43634
      vertex 30.5 -7.5 0
      vertex 25.055 -7.5 3.05014
    endloop
  endfacet
  facet normal 1 0 0
    outer loop
      vertex 20.5 -5 0
      vertex 20.5 -5 10
      vertex 20.5 -7.5 10
    endloop
  endfacet
  facet normal 1 0 0
    outer loop
      vertex 20.5 -7.5 0
      vertex 20.5 -5 0
      vertex 20.5 -7.5 10
    endloop
  endfacet
  facet normal 0 1 0
    outer loop
      vertex 20.5 -5 10
      vertex 20.5 -5 0
      vertex -16 -5 10
    endloop
  endfacet
  facet normal 0 1 0
    outer loop
      vertex -16 -5 10
      vertex 20.5 -5 0
      vertex -16 -5 0
    endloop
  endfacet
  facet normal 1 0 0
    outer loop
      vertex -16 -5 10
      vertex -16 -5 0
      vertex -16 -4.95106 0
    endloop
  endfacet
  facet normal 1 0 0
    outer loop
      vertex -16 -4.95106 10
      vertex -16 -5 10
      vertex -16 -4.95106 0
    endloop
  endfacet
  facet normal 0 1 0
    outer loop
      vertex -16 -4.95106 10
      vertex -16 -4.95106 0
      vertex -16.309 -4.95106 10
    endloop
  endfacet
  facet normal 0 1 0
    outer loop
      vertex -16.309 -4.95106 10
      vertex -16 -4.95106 0
      vertex -16.309 -4.95106 0
    endloop
  endfacet
  facet normal 0.587786 0.809016 0
    outer loop
      vertex -16.309 -4.95106 10
      vertex -16.309 -4.95106 0
      vertex -16.809 -4.58778 10
    endloop
  endfacet
  facet normal 0.587786 0.809016 0
    outer loop
      vertex -16.809 -4.58778 10
      vertex -16.309 -4.95106 0
      vertex -16.809 -4.58778 0
    endloop
  endfacet
  facet normal 0.951056 0.309017 0
    outer loop
      vertex -17 -4 10
      vertex -16.809 -4.58778 10
      vertex -16.809 -4.58778 0
    endloop
  endfacet
  facet normal 0.951056 0.309017 0
    outer loop
      vertex -17 -4 0
      vertex -17 -4 10
      vertex -16.809 -4.58778 0
    endloop
  endfacet
  facet normal 1 0 0
    outer loop
      vertex -17 17 0
      vertex -17 17 10
      vertex -17 -4 10
    endloop
  endfacet
  facet normal 1 0 0
    outer loop
      vertex -17 -4 0
      vertex -17 17 0
      vertex -17 -4 10
    endloop
  endfacet
  facet normal 0.951056 -0.309017 0
    outer loop
      vertex -16.809 17.5878 0
      vertex -16.809 17.5878 10
      vertex -17 17 10
    endloop
  endfacet
  facet normal 0.951056 -0.309017 0
    outer loop
      vertex -17 17 0
      vertex -16.809 17.5878 0
      vertex -17 17 10
    endloop
  endfacet
  facet normal 0.587786 -0.809016 0
    outer loop
      vertex -16.309 17.9511 0
      vertex -16.309 17.9511 10
      vertex -16.809 17.5878 10
    endloop
  endfacet
  facet normal 0.587786 -0.809016 0
    outer loop
      vertex -16.809 17.5878 0
      vertex -16.309 17.9511 0
      vertex -16.809 17.5878 10
    endloop
  endfacet
  facet normal 0 -1 0
    outer loop
      vertex -16 17.9511 0
      vertex -16 17.9511 10
      vertex -16.309 17.9511 10
    endloop
  endfacet
  facet normal 0 -1 0
    outer loop
      vertex -16.309 17.9511 0
      vertex -16 17.9511 0
      vertex -16.309 17.9511 10
    endloop
  endfacet
  facet normal 1 0 0
    outer loop
      vertex -16 17.9511 10
      vertex -16 17.9511 0
      vertex -16 18 0
    endloop
  endfacet
  facet normal 1 0 0
    outer loop
      vertex -16 18 10
      vertex -16 17.9511 10
      vertex -16 18 0
    endloop
  endfacet
  facet normal 0 -1 0
    outer loop
      vertex -14 18 0
      vertex -14 18 10
      vertex -16 18 10
    endloop
  endfacet
  facet normal 0 -1 0
    outer loop
      vertex -16 18 0
      vertex -14 18 0
      vertex -16 18 10
    endloop
  endfacet
  facet normal 0.707107 0.707107 0
    outer loop
      vertex -14 18 10
      vertex -14 18 0
      vertex -17 21 10
    endloop
  endfacet
  facet normal 0.707107 0.707107 0
    outer loop
      vertex -17 21 10
      vertex -14 18 0
      vertex -17 21 0
    endloop
  endfacet
  facet normal 0 1 0
    outer loop
      vertex -19 21 0
      vertex -19 21 10
      vertex -17 21 0
    endloop
  endfacet
  facet normal 0 1 0
    outer loop
      vertex -17 21 0
      vertex -19 21 10
      vertex -17 21 10
    endloop
  endfacet
  facet normal -1 0 0
    outer loop
      vertex -19 21 10
      vertex -19 21 0
      vertex -19 20.9511 10
    endloop
  endfacet
  facet normal -1 0 0
    outer loop
      vertex -19 20.9511 10
      vertex -19 21 0
      vertex -19 20.9511 0
    endloop
  endfacet
  facet normal 0 1 0
    outer loop
      vertex -19.309 20.9511 0
      vertex -19.309 20.9511 10
      vertex -19 20.9511 0
    endloop
  endfacet
  facet normal 0 1 0
    outer loop
      vertex -19 20.9511 0
      vertex -19.309 20.9511 10
      vertex -19 20.9511 10
    endloop
  endfacet
  facet normal -0.587786 0.809016 0
    outer loop
      vertex -19.809 20.5878 0
      vertex -19.809 20.5878 10
      vertex -19.309 20.9511 0
    endloop
  endfacet
  facet normal -0.587786 0.809016 0
    outer loop
      vertex -19.309 20.9511 0
      vertex -19.809 20.5878 10
      vertex -19.309 20.9511 10
    endloop
  endfacet
  facet normal 1 0 0
    outer loop
      vertex -18.809 -6.41221 0
      vertex -18.809 -6.41221 10
      vertex -18.809 -7.58778 10
    endloop
  endfacet
  facet normal 1 0 0
    outer loop
      vertex -18.809 -7.58778 0
      vertex -18.809 -6.41221 0
      vertex -18.809 -7.58778 10
    endloop
  endfacet
  facet normal 0.309018 -0.951056 0
    outer loop
      vertex -17.691 -6.04894 0
      vertex -17.691 -6.04894 10
      vertex -18.809 -6.41221 10
    endloop
  endfacet
  facet normal 0.309018 -0.951056 0
    outer loop
      vertex -18.809 -6.41221 0
      vertex -17.691 -6.04894 0
      vertex -18.809 -6.41221 10
    endloop
  endfacet
  facet normal -0.809017 -0.587785 0
    outer loop
      vertex -17 -7 10
      vertex -17.691 -6.04894 10
      vertex -17 -7 0
    endloop
  endfacet
  facet normal -0.809017 -0.587785 0
    outer loop
      vertex -17 -7 0
      vertex -17.691 -6.04894 10
      vertex -17.691 -6.04894 0
    endloop
  endfacet
  facet normal -0.809017 0.587785 0
    outer loop
      vertex -17 -7 10
      vertex -17 -7 0
      vertex -17.691 -7.95106 10
    endloop
  endfacet
  facet normal -0.809017 0.587785 0
    outer loop
      vertex -17.691 -7.95106 10
      vertex -17 -7 0
      vertex -17.691 -7.95106 0
    endloop
  endfacet
  facet normal 0.309018 0.951056 0
    outer loop
      vertex -17.691 -7.95106 10
      vertex -17.691 -7.95106 0
      vertex -18.809 -7.58778 10
    endloop
  endfacet
  facet normal 0.309018 0.951056 0
    outer loop
      vertex -18.809 -7.58778 10
      vertex -17.691 -7.95106 0
      vertex -18.809 -7.58778 0
    endloop
  endfacet
  facet normal 1 0 0
    outer loop
      vertex -18.809 18.5878 0
      vertex -18.809 18.5878 10
      vertex -18.809 17.4122 10
    endloop
  endfacet
  facet normal 1 0 0
    outer loop
      vertex -18.809 17.4122 0
      vertex -18.809 18.5878 0
      vertex -18.809 17.4122 10
    endloop
  endfacet
  facet normal 0.309018 -0.951056 0
    outer loop
      vertex -17.691 18.9511 0
      vertex -17.691 18.9511 10
      vertex -18.809 18.5878 10
    endloop
  endfacet
  facet normal 0.309018 -0.951056 0
    outer loop
      vertex -18.809 18.5878 0
      vertex -17.691 18.9511 0
      vertex -18.809 18.5878 10
    endloop
  endfacet
  facet normal -0.809017 -0.587785 0
    outer loop
      vertex -17 18 10
      vertex -17.691 18.9511 10
      vertex -17 18 0
    endloop
  endfacet
  facet normal -0.809017 -0.587785 0
    outer loop
      vertex -17 18 0
      vertex -17.691 18.9511 10
      vertex -17.691 18.9511 0
    endloop
  endfacet
  facet normal -0.809017 0.587785 0
    outer loop
      vertex -17 18 10
      vertex -17 18 0
      vertex -17.691 17.0489 10
    endloop
  endfacet
  facet normal -0.809017 0.587785 0
    outer loop
      vertex -17.691 17.0489 10
      vertex -17 18 0
      vertex -17.691 17.0489 0
    endloop
  endfacet
  facet normal 0.309018 0.951056 0
    outer loop
      vertex -17.691 17.0489 10
      vertex -17.691 17.0489 0
      vertex -18.809 17.4122 10
    endloop
  endfacet
  facet normal 0.309018 0.951056 0
    outer loop
      vertex -18.809 17.4122 10
      vertex -17.691 17.0489 0
      vertex -18.809 17.4122 0
    endloop
  endfacet
  facet normal 1 0 0
    outer loop
      vertex 69.191 -6.41221 0
      vertex 69.191 -6.41221 10
      vertex 69.191 -7.58778 10
    endloop
  endfacet
  facet normal 1 0 0
    outer loop
      vertex 69.191 -7.58778 0
      vertex 69.191 -6.41221 0
      vertex 69.191 -7.58778 10
    endloop
  endfacet
  facet normal 0.309018 -0.951056 0
    outer loop
      vertex 70.309 -6.04894 0
      vertex 70.309 -6.04894 10
      vertex 69.191 -6.41221 10
    endloop
  endfacet
  facet normal 0.309018 -0.951056 0
    outer loop
      vertex 69.191 -6.41221 0
      vertex 70.309 -6.04894 0
      vertex 69.191 -6.41221 10
    endloop
  endfacet
  facet normal -0.809017 -0.587785 0
    outer loop
      vertex 71 -7 10
      vertex 70.309 -6.04894 10
      vertex 71 -7 0
    endloop
  endfacet
  facet normal -0.809017 -0.587785 0
    outer loop
      vertex 71 -7 0
      vertex 70.309 -6.04894 10
      vertex 70.309 -6.04894 0
    endloop
  endfacet
  facet normal -0.809017 0.587785 0
    outer loop
      vertex 71 -7 10
      vertex 71 -7 0
      vertex 70.309 -7.95106 10
    endloop
  endfacet
  facet normal -0.809017 0.587785 0
    outer loop
      vertex 70.309 -7.95106 10
      vertex 71 -7 0
      vertex 70.309 -7.95106 0
    endloop
  endfacet
  facet normal 0.309018 0.951056 0
    outer loop
      vertex 70.309 -7.95106 10
      vertex 70.309 -7.95106 0
      vertex 69.191 -7.58778 10
    endloop
  endfacet
  facet normal 0.309018 0.951056 0
    outer loop
      vertex 69.191 -7.58778 10
      vertex 70.309 -7.95106 0
      vertex 69.191 -7.58778 0
    endloop
  endfacet
  facet normal 1 0 0
    outer loop
      vertex 69.191 18.5878 0
      vertex 69.191 18.5878 10
      vertex 69.191 17.4122 10
    endloop
  endfacet
  facet normal 1 0 0
    outer loop
      vertex 69.191 17.4122 0
      vertex 69.191 18.5878 0
      vertex 69.191 17.4122 10
    endloop
  endfacet
  facet normal 0.309018 -0.951056 0
    outer loop
      vertex 70.309 18.9511 0
      vertex 70.309 18.9511 10
      vertex 69.191 18.5878 10
    endloop
  endfacet
  facet normal 0.309018 -0.951056 0
    outer loop
      vertex 69.191 18.5878 0
      vertex 70.309 18.9511 0
      vertex 69.191 18.5878 10
    endloop
  endfacet
  facet normal -0.809017 -0.587785 0
    outer loop
      vertex 71 18 10
      vertex 70.309 18.9511 10
      vertex 71 18 0
    endloop
  endfacet
  facet normal -0.809017 -0.587785 0
    outer loop
      vertex 71 18 0
      vertex 70.309 18.9511 10
      vertex 70.309 18.9511 0
    endloop
  endfacet
  facet normal -0.809017 0.587785 0
    outer loop
      vertex 71 18 10
      vertex 71 18 0
      vertex 70.309 17.0489 10
    endloop
  endfacet
  facet normal -0.809017 0.587785 0
    outer loop
      vertex 70.309 17.0489 10
      vertex 71 18 0
      vertex 70.309 17.0489 0
    endloop
  endfacet
  facet normal 0.309018 0.951056 0
    outer loop
      vertex 70.309 17.0489 10
      vertex 70.309 17.0489 0
      vertex 69.191 17.4122 10
    endloop
  endfacet
  facet normal 0.309018 0.951056 0
    outer loop
      vertex 69.191 17.4122 10
      vertex 70.309 17.0489 0
      vertex 69.191 17.4122 0
    endloop
  endfacet
  facet normal 0 1 2.22045e-16
    outer loop
      vertex 26.747 -10 3.43634
      vertex 25.055 -10 3.05014
      vertex 27.5 -10 5
    endloop
  endfacet
  facet normal 0 1 2.22045e-16
    outer loop
      vertex 27.5 -10 5
      vertex 25.055 -10 3.05014
      vertex 23.6981 -10 4.13223
    endloop
  endfacet
  facet normal 0 1 2.22045e-16
    outer loop
      vertex 27.5 -10 5
      vertex 23.6981 -10 4.13223
      vertex 23.6981 -10 5
    endloop
  endfacet
  facet normal 1 0 0
    outer loop
      vertex 23.6981 -10 4.13223
      vertex 23.6981 -7.5 4.13223
      vertex 23.6981 -7.5 5.86777
    endloop
  endfacet
  facet normal 1 0 0
    outer loop
      vertex 23.6981 -10 5
      vertex 23.6981 -10 4.13223
      vertex 23.6981 -10 5.86777
    endloop
  endfacet
  facet normal 1 0 0
    outer loop
      vertex 23.6981 -10 5.86777
      vertex 23.6981 -10 4.13223
      vertex 23.6981 -7.5 5.86777
    endloop
  endfacet
  facet normal -0.900969 9.63415e-17 -0.433884
    outer loop
      vertex 27.5 -7.5 5
      vertex 27.5 -10 5
      vertex 26.747 -7.5 6.56366
    endloop
  endfacet
  facet normal -0.900969 9.63415e-17 -0.433884
    outer loop
      vertex 26.747 -7.5 6.56366
      vertex 27.5 -10 5
      vertex 26.747 -10 6.56366
    endloop
  endfacet
  facet normal -0.900969 -9.63415e-17 0.433884
    outer loop
      vertex 27.5 -7.5 5
      vertex 26.747 -7.5 3.43634
      vertex 27.5 -10 5
    endloop
  endfacet
  facet normal -0.900969 -9.63415e-17 0.433884
    outer loop
      vertex 27.5 -10 5
      vertex 26.747 -7.5 3.43634
      vertex 26.747 -10 3.43634
    endloop
  endfacet
  facet normal -0.222521 2.16477e-16 -0.974928
    outer loop
      vertex 26.747 -7.5 6.56366
      vertex 26.747 -10 6.56366
      vertex 25.055 -7.5 6.94986
    endloop
  endfacet
  facet normal -0.222521 2.16477e-16 -0.974928
    outer loop
      vertex 25.055 -7.5 6.94986
      vertex 26.747 -10 6.56366
      vertex 25.055 -10 6.94986
    endloop
  endfacet
  facet normal 0.62349 1.73601e-16 -0.781831
    outer loop
      vertex 25.055 -7.5 6.94986
      vertex 25.055 -10 6.94986
      vertex 23.6981 -7.5 5.86777
    endloop
  endfacet
  facet normal 0.62349 1.73601e-16 -0.781831
    outer loop
      vertex 23.6981 -7.5 5.86777
      vertex 25.055 -10 6.94986
      vertex 23.6981 -10 5.86777
    endloop
  endfacet
  facet normal 0.62349 -1.73601e-16 0.781831
    outer loop
      vertex 25.055 -10 3.05014
      vertex 25.055 -7.5 3.05014
      vertex 23.6981 -7.5 4.13223
    endloop
  endfacet
  facet normal 0.62349 -1.73601e-16 0.781831
    outer loop
      vertex 23.6981 -10 4.13223
      vertex 25.055 -10 3.05014
      vertex 23.6981 -7.5 4.13223
    endloop
  endfacet
  facet normal -0.222521 -2.16477e-16 0.974928
    outer loop
      vertex 26.747 -10 3.43634
      vertex 26.747 -7.5 3.43634
      vertex 25.055 -7.5 3.05014
    endloop
  endfacet
  facet normal -0.222521 -2.16477e-16 0.974928
    outer loop
      vertex 25.055 -10 3.05014
      vertex 26.747 -10 3.43634
      vertex 25.055 -7.5 3.05014
    endloop
  endfacet
endsolid OpenSCAD_Model
