solid OpenSCAD_Model
  facet normal -1 0 0
    outer loop
      vertex 0 1 0
      vertex 0 1 10
      vertex 0 28 0
    endloop
  endfacet
  facet normal -1 0 0
    outer loop
      vertex 0 28 0
      vertex 0 1 10
      vertex 0 28 10
    endloop
  endfacet
  facet normal -0.951056 -0.309017 0
    outer loop
      vertex 0 1 0
      vertex 0.190983 0.412215 0
      vertex 0 1 10
    endloop
  endfacet
  facet normal -0.951056 -0.309017 0
    outer loop
      vertex 0 1 10
      vertex 0.190983 0.412215 0
      vertex 0.190983 0.412215 10
    endloop
  endfacet
  facet normal 0 0 -1
    outer loop
      vertex 0 1 0
      vertex 0 28 0
      vertex 0.190983 0.412215 0
    endloop
  endfacet
  facet normal 0 0 -1
    outer loop
      vertex 0.190983 0.412215 0
      vertex 0 28 0
      vertex 0.190983 28.5878 0
    endloop
  endfacet
  facet normal 0 0 -1
    outer loop
      vertex 0.190983 0.412215 0
      vertex 0.190983 28.5878 0
      vertex 0.690983 28.9511 0
    endloop
  endfacet
  facet normal 0 0 -1
    outer loop
      vertex 0.190983 0.412215 0
      vertex 0.690983 28.9511 0
      vertex 1 28.9511 0
    endloop
  endfacet
  facet normal 0 0 -1
    outer loop
      vertex 1 28.9511 0
      vertex 1 29 0
      vertex 3 29 0
    endloop
  endfacet
  facet normal 0 0 -1
    outer loop
      vertex 1 28.9511 0
      vertex 3 29 0
      vertex 0.190983 0.412215 0
    endloop
  endfacet
  facet normal 0 0 -1
    outer loop
      vertex 4 26 0
      vertex 3 29 0
      vertex 6 26 0
    endloop
  endfacet
  facet normal 0 0 -1
    outer loop
      vertex 3.69098 25.9511 0
      vertex 3 29 0
      vertex 4 26 0
    endloop
  endfacet
  facet normal 0 0 -1
    outer loop
      vertex 3.19098 25.5878 0
      vertex 3 29 0
      vertex 3.69098 25.9511 0
    endloop
  endfacet
  facet normal 0 0 -1
    outer loop
      vertex 3 4 0
      vertex 0.190983 0.412215 0
      vertex 3 25 0
    endloop
  endfacet
  facet normal 0 0 -1
    outer loop
      vertex 3 25 0
      vertex 3 29 0
      vertex 3.19098 25.5878 0
    endloop
  endfacet
  facet normal 0 0 -1
    outer loop
      vertex 25.165 1.5 0
      vertex 39.33 0.048943 0
      vertex 39.33 0 0
    endloop
  endfacet
  facet normal 0 0 -1
    outer loop
      vertex 0.190983 0.412215 0
      vertex 3 29 0
      vertex 3 25 0
    endloop
  endfacet
  facet normal 0 0 -1
    outer loop
      vertex 25.165 1.5 0
      vertex 39.33 0 0
      vertex 25.165 0 0
    endloop
  endfacet
  facet normal 0 0 -1
    outer loop
      vertex 36.33 26 0
      vertex 36.639 25.9511 0
      vertex 36.33 25.9511 0
    endloop
  endfacet
  facet normal 0 0 -1
    outer loop
      vertex 0.190983 0.412215 0
      vertex 3 4 0
      vertex 3.19098 3.41221 0
    endloop
  endfacet
  facet normal 0 0 -1
    outer loop
      vertex 3.19098 3.41221 0
      vertex 3.69098 3.04894 0
      vertex 0.190983 0.412215 0
    endloop
  endfacet
  facet normal 0 0 -1
    outer loop
      vertex 3.69098 3.04894 0
      vertex 4 3.04894 0
      vertex 0.190983 0.412215 0
    endloop
  endfacet
  facet normal 0 0 -1
    outer loop
      vertex 0.190983 0.412215 0
      vertex 4 3.04894 0
      vertex 4 3 0
    endloop
  endfacet
  facet normal 0 0 -1
    outer loop
      vertex 15.165 0 0
      vertex 0.190983 0.412215 0
      vertex 15.165 1.5 0
    endloop
  endfacet
  facet normal 0 0 -1
    outer loop
      vertex 25.165 1.5 0
      vertex 40.33 1 0
      vertex 40.139 0.412215 0
    endloop
  endfacet
  facet normal 0 0 -1
    outer loop
      vertex 36.33 3 0
      vertex 36.33 3.04894 0
      vertex 36.639 3.04894 0
    endloop
  endfacet
  facet normal 0 0 -1
    outer loop
      vertex 15.165 1.5 0
      vertex 36.33 3 0
      vertex 25.165 1.5 0
    endloop
  endfacet
  facet normal 0 0 -1
    outer loop
      vertex 36.639 3.04894 0
      vertex 40.33 1 0
      vertex 36.33 3 0
    endloop
  endfacet
  facet normal 0 0 -1
    outer loop
      vertex 37.139 3.41221 0
      vertex 40.33 1 0
      vertex 36.639 3.04894 0
    endloop
  endfacet
  facet normal 0 0 -1
    outer loop
      vertex 37.139 25.5878 0
      vertex 37.33 29 0
      vertex 37.33 25 0
    endloop
  endfacet
  facet normal 0 0 -1
    outer loop
      vertex 37.33 29 0
      vertex 36.33 26 0
      vertex 34.33 26 0
    endloop
  endfacet
  facet normal 0 0 -1
    outer loop
      vertex 25.165 1.5 0
      vertex 40.139 0.412215 0
      vertex 39.639 0.048943 0
    endloop
  endfacet
  facet normal 0 0 -1
    outer loop
      vertex 36.639 25.9511 0
      vertex 36.33 26 0
      vertex 37.33 29 0
    endloop
  endfacet
  facet normal 0 0 -1
    outer loop
      vertex 36.639 25.9511 0
      vertex 37.33 29 0
      vertex 37.139 25.5878 0
    endloop
  endfacet
  facet normal 0 0 -1
    outer loop
      vertex 37.33 25 0
      vertex 37.33 29 0
      vertex 39.33 29 0
    endloop
  endfacet
  facet normal 0 0 -1
    outer loop
      vertex 37.33 25 0
      vertex 39.33 29 0
      vertex 37.33 4 0
    endloop
  endfacet
  facet normal 0 0 -1
    outer loop
      vertex 37.33 4 0
      vertex 39.33 29 0
      vertex 39.33 28.9511 0
    endloop
  endfacet
  facet normal 0 0 -1
    outer loop
      vertex 37.33 4 0
      vertex 39.33 28.9511 0
      vertex 39.639 28.9511 0
    endloop
  endfacet
  facet normal 0 0 -1
    outer loop
      vertex 37.33 4 0
      vertex 39.639 28.9511 0
      vertex 40.139 28.5878 0
    endloop
  endfacet
  facet normal 0 0 -1
    outer loop
      vertex 37.33 4 0
      vertex 40.139 28.5878 0
      vertex 40.33 28 0
    endloop
  endfacet
  facet normal 0 0 -1
    outer loop
      vertex 37.33 4 0
      vertex 40.33 28 0
      vertex 40.33 1 0
    endloop
  endfacet
  facet normal 0 0 -1
    outer loop
      vertex 37.33 4 0
      vertex 40.33 1 0
      vertex 37.139 3.41221 0
    endloop
  endfacet
  facet normal 0 0 -1
    outer loop
      vertex 36.33 3 0
      vertex 40.33 1 0
      vertex 25.165 1.5 0
    endloop
  endfacet
  facet normal 0 0 -1
    outer loop
      vertex 4 3 0
      vertex 36.33 3 0
      vertex 15.165 1.5 0
    endloop
  endfacet
  facet normal 0 0 -1
    outer loop
      vertex 4 3 0
      vertex 15.165 1.5 0
      vertex 0.190983 0.412215 0
    endloop
  endfacet
  facet normal 0 0 -1
    outer loop
      vertex 0.690983 0.048943 0
      vertex 0.190983 0.412215 0
      vertex 1 0.048943 0
    endloop
  endfacet
  facet normal 0 0 -1
    outer loop
      vertex 1 0.048943 0
      vertex 15.165 0 0
      vertex 1 0 0
    endloop
  endfacet
  facet normal 0 0 -1
    outer loop
      vertex 0.190983 0.412215 0
      vertex 15.165 0 0
      vertex 1 0.048943 0
    endloop
  endfacet
  facet normal 0 0 -1
    outer loop
      vertex 3.69098 25.9511 0
      vertex 4 26 0
      vertex 4 25.9511 0
    endloop
  endfacet
  facet normal 0 0 -1
    outer loop
      vertex 25.165 1.5 0
      vertex 39.639 0.048943 0
      vertex 39.33 0.048943 0
    endloop
  endfacet
  facet normal -0.951056 0.309017 0
    outer loop
      vertex 0 28 0
      vertex 0 28 10
      vertex 0.190983 28.5878 0
    endloop
  endfacet
  facet normal -0.951056 0.309017 0
    outer loop
      vertex 0.190983 28.5878 0
      vertex 0 28 10
      vertex 0.190983 28.5878 10
    endloop
  endfacet
  facet normal 0 0 1
    outer loop
      vertex 0 28 10
      vertex 0 1 10
      vertex 0.190983 0.412215 10
    endloop
  endfacet
  facet normal 0 0 1
    outer loop
      vertex 1 0.048943 10
      vertex 0 28 10
      vertex 0.690983 0.048943 10
    endloop
  endfacet
  facet normal 0 0 1
    outer loop
      vertex 0.690983 0.048943 10
      vertex 0 28 10
      vertex 0.190983 0.412215 10
    endloop
  endfacet
  facet normal 0 0 1
    outer loop
      vertex 3 4 10
      vertex 0 28 10
      vertex 1 0.048943 10
    endloop
  endfacet
  facet normal 0 0 1
    outer loop
      vertex 15.165 0 10
      vertex 1 0.048943 10
      vertex 1 0 10
    endloop
  endfacet
  facet normal 0 0 1
    outer loop
      vertex 3 4 10
      vertex 3 25 10
      vertex 0 28 10
    endloop
  endfacet
  facet normal 0 0 1
    outer loop
      vertex 39.33 0 10
      vertex 25.165 1.5 10
      vertex 25.165 0 10
    endloop
  endfacet
  facet normal 0 0 1
    outer loop
      vertex 36.33 3.04894 10
      vertex 36.33 3 10
      vertex 40.139 0.412215 10
    endloop
  endfacet
  facet normal 0 0 1
    outer loop
      vertex 36.33 25.9511 10
      vertex 36.639 25.9511 10
      vertex 36.33 26 10
    endloop
  endfacet
  facet normal 0 0 1
    outer loop
      vertex 37.33 25 10
      vertex 37.33 4 10
      vertex 40.33 1 10
    endloop
  endfacet
  facet normal 0 0 1
    outer loop
      vertex 36.33 3 10
      vertex 39.33 0.048943 10
      vertex 39.639 0.048943 10
    endloop
  endfacet
  facet normal 0 0 1
    outer loop
      vertex 37.139 3.41221 10
      vertex 36.639 3.04894 10
      vertex 40.33 1 10
    endloop
  endfacet
  facet normal 0 0 1
    outer loop
      vertex 40.33 28 10
      vertex 34.33 26 10
      vertex 36.33 26 10
    endloop
  endfacet
  facet normal 0 0 1
    outer loop
      vertex 40.33 28 10
      vertex 36.33 26 10
      vertex 36.639 25.9511 10
    endloop
  endfacet
  facet normal 0 0 1
    outer loop
      vertex 40.33 28 10
      vertex 36.639 25.9511 10
      vertex 37.139 25.5878 10
    endloop
  endfacet
  facet normal 0 0 1
    outer loop
      vertex 40.33 28 10
      vertex 37.33 25 10
      vertex 40.33 1 10
    endloop
  endfacet
  facet normal 0 0 1
    outer loop
      vertex 40.33 28 10
      vertex 37.139 25.5878 10
      vertex 37.33 25 10
    endloop
  endfacet
  facet normal 0 0 1
    outer loop
      vertex 4 25.9511 10
      vertex 4 26 10
      vertex 3.69098 25.9511 10
    endloop
  endfacet
  facet normal 0 0 1
    outer loop
      vertex 37.33 4 10
      vertex 37.139 3.41221 10
      vertex 40.33 1 10
    endloop
  endfacet
  facet normal 0 0 1
    outer loop
      vertex 40.33 1 10
      vertex 36.639 3.04894 10
      vertex 40.139 0.412215 10
    endloop
  endfacet
  facet normal 0 0 1
    outer loop
      vertex 36.639 3.04894 10
      vertex 36.33 3.04894 10
      vertex 40.139 0.412215 10
    endloop
  endfacet
  facet normal 0 0 1
    outer loop
      vertex 40.139 0.412215 10
      vertex 36.33 3 10
      vertex 39.639 0.048943 10
    endloop
  endfacet
  facet normal 0 0 1
    outer loop
      vertex 15.165 0 10
      vertex 4 3 10
      vertex 1 0.048943 10
    endloop
  endfacet
  facet normal 0 0 1
    outer loop
      vertex 4 3.04894 10
      vertex 3.69098 3.04894 10
      vertex 4 3 10
    endloop
  endfacet
  facet normal 0 0 1
    outer loop
      vertex 4 3 10
      vertex 3.69098 3.04894 10
      vertex 1 0.048943 10
    endloop
  endfacet
  facet normal 0 0 1
    outer loop
      vertex 3.69098 3.04894 10
      vertex 3.19098 3.41221 10
      vertex 1 0.048943 10
    endloop
  endfacet
  facet normal 0 0 1
    outer loop
      vertex 3.19098 3.41221 10
      vertex 3 4 10
      vertex 1 0.048943 10
    endloop
  endfacet
  facet normal 0 0 1
    outer loop
      vertex 3.19098 25.5878 10
      vertex 3.69098 25.9511 10
      vertex 0 28 10
    endloop
  endfacet
  facet normal 0 0 1
    outer loop
      vertex 3.19098 25.5878 10
      vertex 0 28 10
      vertex 3 25 10
    endloop
  endfacet
  facet normal 0 0 1
    outer loop
      vertex 4 26 10
      vertex 0 28 10
      vertex 3.69098 25.9511 10
    endloop
  endfacet
  facet normal 0 0 1
    outer loop
      vertex 6 26 10
      vertex 3 29 10
      vertex 0 28 10
    endloop
  endfacet
  facet normal 0 0 1
    outer loop
      vertex 6 26 10
      vertex 0 28 10
      vertex 4 26 10
    endloop
  endfacet
  facet normal 0 0 1
    outer loop
      vertex 1 28.9511 10
      vertex 0 28 10
      vertex 3 29 10
    endloop
  endfacet
  facet normal 0 0 1
    outer loop
      vertex 1 29 10
      vertex 1 28.9511 10
      vertex 3 29 10
    endloop
  endfacet
  facet normal 0 0 1
    outer loop
      vertex 0.190983 28.5878 10
      vertex 0 28 10
      vertex 0.690983 28.9511 10
    endloop
  endfacet
  facet normal 0 0 1
    outer loop
      vertex 1 28.9511 10
      vertex 0.690983 28.9511 10
      vertex 0 28 10
    endloop
  endfacet
  facet normal 0 0 1
    outer loop
      vertex 37.33 29 10
      vertex 39.33 28.9511 10
      vertex 39.33 29 10
    endloop
  endfacet
  facet normal 0 0 1
    outer loop
      vertex 39.33 28.9511 10
      vertex 40.139 28.5878 10
      vertex 39.639 28.9511 10
    endloop
  endfacet
  facet normal 0 0 1
    outer loop
      vertex 37.33 29 10
      vertex 40.139 28.5878 10
      vertex 39.33 28.9511 10
    endloop
  endfacet
  facet normal 0 0 1
    outer loop
      vertex 37.33 29 10
      vertex 40.33 28 10
      vertex 40.139 28.5878 10
    endloop
  endfacet
  facet normal 0 0 1
    outer loop
      vertex 37.33 29 10
      vertex 34.33 26 10
      vertex 40.33 28 10
    endloop
  endfacet
  facet normal 0 0 1
    outer loop
      vertex 36.33 3 10
      vertex 39.33 0 10
      vertex 39.33 0.048943 10
    endloop
  endfacet
  facet normal 0 0 1
    outer loop
      vertex 36.33 3 10
      vertex 25.165 1.5 10
      vertex 39.33 0 10
    endloop
  endfacet
  facet normal 0 0 1
    outer loop
      vertex 36.33 3 10
      vertex 15.165 1.5 10
      vertex 25.165 1.5 10
    endloop
  endfacet
  facet normal 0 0 1
    outer loop
      vertex 15.165 1.5 10
      vertex 4 3 10
      vertex 15.165 0 10
    endloop
  endfacet
  facet normal 0 0 1
    outer loop
      vertex 36.33 3 10
      vertex 4 3 10
      vertex 15.165 1.5 10
    endloop
  endfacet
  facet normal -0.587786 -0.809016 0
    outer loop
      vertex 0.190983 0.412215 10
      vertex 0.190983 0.412215 0
      vertex 0.690983 0.048943 0
    endloop
  endfacet
  facet normal -0.587786 -0.809016 0
    outer loop
      vertex 0.690983 0.048943 10
      vertex 0.190983 0.412215 10
      vertex 0.690983 0.048943 0
    endloop
  endfacet
  facet normal 0 -1 0
    outer loop
      vertex 0.690983 0.048943 10
      vertex 0.690983 0.048943 0
      vertex 1 0.048943 0
    endloop
  endfacet
  facet normal 0 -1 0
    outer loop
      vertex 1 0.048943 10
      vertex 0.690983 0.048943 10
      vertex 1 0.048943 0
    endloop
  endfacet
  facet normal -1 0 0
    outer loop
      vertex 1 0.048943 10
      vertex 1 0.048943 0
      vertex 1 0 10
    endloop
  endfacet
  facet normal -1 0 0
    outer loop
      vertex 1 0 10
      vertex 1 0.048943 0
      vertex 1 0 0
    endloop
  endfacet
  facet normal 0 -1 0
    outer loop
      vertex 1 0 10
      vertex 1 0 0
      vertex 15.165 0 0
    endloop
  endfacet
  facet normal 0 -1 0
    outer loop
      vertex 15.165 0 10
      vertex 1 0 10
      vertex 15.165 0 0
    endloop
  endfacet
  facet normal 1 0 0
    outer loop
      vertex 15.165 1.5 0
      vertex 15.165 1.5 10
      vertex 15.165 0 10
    endloop
  endfacet
  facet normal 1 0 0
    outer loop
      vertex 15.165 0 0
      vertex 15.165 1.5 0
      vertex 15.165 0 10
    endloop
  endfacet
  facet normal 0 -1 0
    outer loop
      vertex 19.72 1.5 6.94986
      vertex 25.165 1.5 10
      vertex 15.165 1.5 10
    endloop
  endfacet
  facet normal 0 -1 0
    outer loop
      vertex 22.165 1.5 5
      vertex 21.412 1.5 3.43634
      vertex 25.165 1.5 0
    endloop
  endfacet
  facet normal 0 -1 0
    outer loop
      vertex 15.165 1.5 0
      vertex 18.3631 1.5 5.86777
      vertex 15.165 1.5 10
    endloop
  endfacet
  facet normal 0 -1 0
    outer loop
      vertex 21.412 1.5 6.56366
      vertex 25.165 1.5 10
      vertex 19.72 1.5 6.94986
    endloop
  endfacet
  facet normal 0 -1 0
    outer loop
      vertex 25.165 1.5 0
      vertex 25.165 1.5 10
      vertex 21.412 1.5 6.56366
    endloop
  endfacet
  facet normal 0 -1 0
    outer loop
      vertex 21.412 1.5 3.43634
      vertex 19.72 1.5 3.05014
      vertex 25.165 1.5 0
    endloop
  endfacet
  facet normal 0 -1 0
    outer loop
      vertex 25.165 1.5 0
      vertex 21.412 1.5 6.56366
      vertex 22.165 1.5 5
    endloop
  endfacet
  facet normal 0 -1 0
    outer loop
      vertex 15.165 1.5 0
      vertex 25.165 1.5 0
      vertex 19.72 1.5 3.05014
    endloop
  endfacet
  facet normal 0 -1 0
    outer loop
      vertex 15.165 1.5 0
      vertex 18.3631 1.5 4.13223
      vertex 18.3631 1.5 5.86777
    endloop
  endfacet
  facet normal 0 -1 0
    outer loop
      vertex 15.165 1.5 0
      vertex 19.72 1.5 3.05014
      vertex 18.3631 1.5 4.13223
    endloop
  endfacet
  facet normal 0 -1 0
    outer loop
      vertex 18.3631 1.5 5.86777
      vertex 19.72 1.5 6.94986
      vertex 15.165 1.5 10
    endloop
  endfacet
  facet normal -1 0 0
    outer loop
      vertex 25.165 1.5 10
      vertex 25.165 1.5 0
      vertex 25.165 0 10
    endloop
  endfacet
  facet normal -1 0 0
    outer loop
      vertex 25.165 0 10
      vertex 25.165 1.5 0
      vertex 25.165 0 0
    endloop
  endfacet
  facet normal 0 -1 0
    outer loop
      vertex 25.165 0 10
      vertex 25.165 0 0
      vertex 39.33 0 0
    endloop
  endfacet
  facet normal 0 -1 0
    outer loop
      vertex 39.33 0 10
      vertex 25.165 0 10
      vertex 39.33 0 0
    endloop
  endfacet
  facet normal 1 0 0
    outer loop
      vertex 39.33 0.048943 0
      vertex 39.33 0.048943 10
      vertex 39.33 0 10
    endloop
  endfacet
  facet normal 1 0 0
    outer loop
      vertex 39.33 0 0
      vertex 39.33 0.048943 0
      vertex 39.33 0 10
    endloop
  endfacet
  facet normal 0 -1 0
    outer loop
      vertex 39.33 0.048943 10
      vertex 39.33 0.048943 0
      vertex 39.639 0.048943 0
    endloop
  endfacet
  facet normal 0 -1 0
    outer loop
      vertex 39.639 0.048943 10
      vertex 39.33 0.048943 10
      vertex 39.639 0.048943 0
    endloop
  endfacet
  facet normal 0.587786 -0.809016 0
    outer loop
      vertex 39.639 0.048943 10
      vertex 39.639 0.048943 0
      vertex 40.139 0.412215 0
    endloop
  endfacet
  facet normal 0.587786 -0.809016 0
    outer loop
      vertex 40.139 0.412215 10
      vertex 39.639 0.048943 10
      vertex 40.139 0.412215 0
    endloop
  endfacet
  facet normal 0.951056 -0.309017 0
    outer loop
      vertex 40.139 0.412215 10
      vertex 40.139 0.412215 0
      vertex 40.33 1 0
    endloop
  endfacet
  facet normal 0.951056 -0.309017 0
    outer loop
      vertex 40.33 1 10
      vertex 40.139 0.412215 10
      vertex 40.33 1 0
    endloop
  endfacet
  facet normal 1 0 0
    outer loop
      vertex 40.33 1 10
      vertex 40.33 1 0
      vertex 40.33 28 0
    endloop
  endfacet
  facet normal 1 0 0
    outer loop
      vertex 40.33 28 10
      vertex 40.33 1 10
      vertex 40.33 28 0
    endloop
  endfacet
  facet normal 0.951056 0.309017 0
    outer loop
      vertex 40.33 28 0
      vertex 40.139 28.5878 0
      vertex 40.139 28.5878 10
    endloop
  endfacet
  facet normal 0.951056 0.309017 0
    outer loop
      vertex 40.33 28 10
      vertex 40.33 28 0
      vertex 40.139 28.5878 10
    endloop
  endfacet
  facet normal 0.587786 0.809016 0
    outer loop
      vertex 39.639 28.9511 0
      vertex 39.639 28.9511 10
      vertex 40.139 28.5878 0
    endloop
  endfacet
  facet normal 0.587786 0.809016 0
    outer loop
      vertex 40.139 28.5878 0
      vertex 39.639 28.9511 10
      vertex 40.139 28.5878 10
    endloop
  endfacet
  facet normal 0 1 0
    outer loop
      vertex 39.33 28.9511 0
      vertex 39.33 28.9511 10
      vertex 39.639 28.9511 0
    endloop
  endfacet
  facet normal 0 1 0
    outer loop
      vertex 39.639 28.9511 0
      vertex 39.33 28.9511 10
      vertex 39.639 28.9511 10
    endloop
  endfacet
  facet normal 1 0 0
    outer loop
      vertex 39.33 29 0
      vertex 39.33 29 10
      vertex 39.33 28.9511 10
    endloop
  endfacet
  facet normal 1 0 0
    outer loop
      vertex 39.33 28.9511 0
      vertex 39.33 29 0
      vertex 39.33 28.9511 10
    endloop
  endfacet
  facet normal 0 1 0
    outer loop
      vertex 37.33 29 0
      vertex 37.33 29 10
      vertex 39.33 29 0
    endloop
  endfacet
  facet normal 0 1 0
    outer loop
      vertex 39.33 29 0
      vertex 37.33 29 10
      vertex 39.33 29 10
    endloop
  endfacet
  facet normal -0.707107 0.707107 0
    outer loop
      vertex 37.33 29 10
      vertex 37.33 29 0
      vertex 34.33 26 10
    endloop
  endfacet
  facet normal -0.707107 0.707107 0
    outer loop
      vertex 34.33 26 10
      vertex 37.33 29 0
      vertex 34.33 26 0
    endloop
  endfacet
  facet normal 0 -1 0
    outer loop
      vertex 36.33 26 0
      vertex 36.33 26 10
      vertex 34.33 26 10
    endloop
  endfacet
  facet normal 0 -1 0
    outer loop
      vertex 34.33 26 0
      vertex 36.33 26 0
      vertex 34.33 26 10
    endloop
  endfacet
  facet normal -1 0 0
    outer loop
      vertex 36.33 25.9511 0
      vertex 36.33 25.9511 10
      vertex 36.33 26 0
    endloop
  endfacet
  facet normal -1 0 0
    outer loop
      vertex 36.33 26 0
      vertex 36.33 25.9511 10
      vertex 36.33 26 10
    endloop
  endfacet
  facet normal 0 -1 0
    outer loop
      vertex 36.639 25.9511 0
      vertex 36.639 25.9511 10
      vertex 36.33 25.9511 10
    endloop
  endfacet
  facet normal 0 -1 0
    outer loop
      vertex 36.33 25.9511 0
      vertex 36.639 25.9511 0
      vertex 36.33 25.9511 10
    endloop
  endfacet
  facet normal -0.587786 -0.809016 0
    outer loop
      vertex 37.139 25.5878 0
      vertex 37.139 25.5878 10
      vertex 36.639 25.9511 10
    endloop
  endfacet
  facet normal -0.587786 -0.809016 0
    outer loop
      vertex 36.639 25.9511 0
      vertex 37.139 25.5878 0
      vertex 36.639 25.9511 10
    endloop
  endfacet
  facet normal -0.951056 -0.309017 0
    outer loop
      vertex 37.33 25 10
      vertex 37.139 25.5878 10
      vertex 37.33 25 0
    endloop
  endfacet
  facet normal -0.951056 -0.309017 0
    outer loop
      vertex 37.33 25 0
      vertex 37.139 25.5878 10
      vertex 37.139 25.5878 0
    endloop
  endfacet
  facet normal -1 0 0
    outer loop
      vertex 37.33 25 10
      vertex 37.33 25 0
      vertex 37.33 4 10
    endloop
  endfacet
  facet normal -1 0 0
    outer loop
      vertex 37.33 4 10
      vertex 37.33 25 0
      vertex 37.33 4 0
    endloop
  endfacet
  facet normal -0.951056 0.309017 0
    outer loop
      vertex 37.33 4 10
      vertex 37.33 4 0
      vertex 37.139 3.41221 10
    endloop
  endfacet
  facet normal -0.951056 0.309017 0
    outer loop
      vertex 37.139 3.41221 10
      vertex 37.33 4 0
      vertex 37.139 3.41221 0
    endloop
  endfacet
  facet normal -0.587786 0.809016 0
    outer loop
      vertex 37.139 3.41221 10
      vertex 37.139 3.41221 0
      vertex 36.639 3.04894 10
    endloop
  endfacet
  facet normal -0.587786 0.809016 0
    outer loop
      vertex 36.639 3.04894 10
      vertex 37.139 3.41221 0
      vertex 36.639 3.04894 0
    endloop
  endfacet
  facet normal 0 1 0
    outer loop
      vertex 36.639 3.04894 10
      vertex 36.639 3.04894 0
      vertex 36.33 3.04894 10
    endloop
  endfacet
  facet normal 0 1 0
    outer loop
      vertex 36.33 3.04894 10
      vertex 36.639 3.04894 0
      vertex 36.33 3.04894 0
    endloop
  endfacet
  facet normal -1 0 0
    outer loop
      vertex 36.33 3 0
      vertex 36.33 3 10
      vertex 36.33 3.04894 0
    endloop
  endfacet
  facet normal -1 0 0
    outer loop
      vertex 36.33 3.04894 0
      vertex 36.33 3 10
      vertex 36.33 3.04894 10
    endloop
  endfacet
  facet normal 0 1 0
    outer loop
      vertex 19.72 3 3.05014
      vertex 36.33 3 0
      vertex 4 3 0
    endloop
  endfacet
  facet normal 0 1 0
    outer loop
      vertex 22.165 3 5
      vertex 36.33 3 0
      vertex 21.412 3 3.43634
    endloop
  endfacet
  facet normal 0 1 0
    outer loop
      vertex 4 3 10
      vertex 18.3631 3 4.13223
      vertex 4 3 0
    endloop
  endfacet
  facet normal 0 1 0
    outer loop
      vertex 18.3631 3 5
      vertex 4 3 10
      vertex 22.165 3 5
    endloop
  endfacet
  facet normal 0 1 0
    outer loop
      vertex 18.3631 3 4.13223
      vertex 19.72 3 3.05014
      vertex 4 3 0
    endloop
  endfacet
  facet normal 0 1 0
    outer loop
      vertex 21.412 3 3.43634
      vertex 36.33 3 0
      vertex 19.72 3 3.05014
    endloop
  endfacet
  facet normal 0 1 0
    outer loop
      vertex 36.33 3 10
      vertex 36.33 3 0
      vertex 22.165 3 5
    endloop
  endfacet
  facet normal 0 1 0
    outer loop
      vertex 36.33 3 10
      vertex 22.165 3 5
      vertex 4 3 10
    endloop
  endfacet
  facet normal 0 1 0
    outer loop
      vertex 18.3631 3 4.13223
      vertex 4 3 10
      vertex 18.3631 3 5
    endloop
  endfacet
  facet normal 1 0 0
    outer loop
      vertex 4 3 10
      vertex 4 3 0
      vertex 4 3.04894 0
    endloop
  endfacet
  facet normal 1 0 0
    outer loop
      vertex 4 3.04894 10
      vertex 4 3 10
      vertex 4 3.04894 0
    endloop
  endfacet
  facet normal 0 1 0
    outer loop
      vertex 4 3.04894 10
      vertex 4 3.04894 0
      vertex 3.69098 3.04894 10
    endloop
  endfacet
  facet normal 0 1 0
    outer loop
      vertex 3.69098 3.04894 10
      vertex 4 3.04894 0
      vertex 3.69098 3.04894 0
    endloop
  endfacet
  facet normal 0.587786 0.809016 0
    outer loop
      vertex 3.69098 3.04894 10
      vertex 3.69098 3.04894 0
      vertex 3.19098 3.41221 10
    endloop
  endfacet
  facet normal 0.587786 0.809016 0
    outer loop
      vertex 3.19098 3.41221 10
      vertex 3.69098 3.04894 0
      vertex 3.19098 3.41221 0
    endloop
  endfacet
  facet normal 0.951056 0.309017 0
    outer loop
      vertex 3 4 10
      vertex 3.19098 3.41221 10
      vertex 3.19098 3.41221 0
    endloop
  endfacet
  facet normal 0.951056 0.309017 0
    outer loop
      vertex 3 4 0
      vertex 3 4 10
      vertex 3.19098 3.41221 0
    endloop
  endfacet
  facet normal 1 0 0
    outer loop
      vertex 3 25 0
      vertex 3 25 10
      vertex 3 4 10
    endloop
  endfacet
  facet normal 1 0 0
    outer loop
      vertex 3 4 0
      vertex 3 25 0
      vertex 3 4 10
    endloop
  endfacet
  facet normal 0.951056 -0.309017 0
    outer loop
      vertex 3.19098 25.5878 0
      vertex 3.19098 25.5878 10
      vertex 3 25 10
    endloop
  endfacet
  facet normal 0.951056 -0.309017 0
    outer loop
      vertex 3 25 0
      vertex 3.19098 25.5878 0
      vertex 3 25 10
    endloop
  endfacet
  facet normal 0.587786 -0.809016 0
    outer loop
      vertex 3.69098 25.9511 0
      vertex 3.69098 25.9511 10
      vertex 3.19098 25.5878 10
    endloop
  endfacet
  facet normal 0.587786 -0.809016 0
    outer loop
      vertex 3.19098 25.5878 0
      vertex 3.69098 25.9511 0
      vertex 3.19098 25.5878 10
    endloop
  endfacet
  facet normal 0 -1 0
    outer loop
      vertex 4 25.9511 0
      vertex 4 25.9511 10
      vertex 3.69098 25.9511 10
    endloop
  endfacet
  facet normal 0 -1 0
    outer loop
      vertex 3.69098 25.9511 0
      vertex 4 25.9511 0
      vertex 3.69098 25.9511 10
    endloop
  endfacet
  facet normal 1 0 0
    outer loop
      vertex 4 25.9511 10
      vertex 4 25.9511 0
      vertex 4 26 0
    endloop
  endfacet
  facet normal 1 0 0
    outer loop
      vertex 4 26 10
      vertex 4 25.9511 10
      vertex 4 26 0
    endloop
  endfacet
  facet normal 0 -1 0
    outer loop
      vertex 6 26 0
      vertex 6 26 10
      vertex 4 26 10
    endloop
  endfacet
  facet normal 0 -1 0
    outer loop
      vertex 4 26 0
      vertex 6 26 0
      vertex 4 26 10
    endloop
  endfacet
  facet normal 0.707107 0.707107 0
    outer loop
      vertex 6 26 10
      vertex 6 26 0
      vertex 3 29 10
    endloop
  endfacet
  facet normal 0.707107 0.707107 0
    outer loop
      vertex 3 29 10
      vertex 6 26 0
      vertex 3 29 0
    endloop
  endfacet
  facet normal 0 1 0
    outer loop
      vertex 1 29 0
      vertex 1 29 10
      vertex 3 29 0
    endloop
  endfacet
  facet normal 0 1 0
    outer loop
      vertex 3 29 0
      vertex 1 29 10
      vertex 3 29 10
    endloop
  endfacet
  facet normal -1 0 0
    outer loop
      vertex 1 29 10
      vertex 1 29 0
      vertex 1 28.9511 10
    endloop
  endfacet
  facet normal -1 0 0
    outer loop
      vertex 1 28.9511 10
      vertex 1 29 0
      vertex 1 28.9511 0
    endloop
  endfacet
  facet normal 0 1 0
    outer loop
      vertex 0.690983 28.9511 0
      vertex 0.690983 28.9511 10
      vertex 1 28.9511 0
    endloop
  endfacet
  facet normal 0 1 0
    outer loop
      vertex 1 28.9511 0
      vertex 0.690983 28.9511 10
      vertex 1 28.9511 10
    endloop
  endfacet
  facet normal -0.587786 0.809016 0
    outer loop
      vertex 0.190983 28.5878 0
      vertex 0.190983 28.5878 10
      vertex 0.690983 28.9511 0
    endloop
  endfacet
  facet normal -0.587786 0.809016 0
    outer loop
      vertex 0.690983 28.9511 0
      vertex 0.190983 28.5878 10
      vertex 0.690983 28.9511 10
    endloop
  endfacet
  facet normal 1 0 0
    outer loop
      vertex 18.3631 3 4.13223
      vertex 18.3631 3 5
      vertex 18.3631 3 5.86777
    endloop
  endfacet
  facet normal 1 0 0
    outer loop
      vertex 18.3631 1.5 4.13223
      vertex 18.3631 3 4.13223
      vertex 18.3631 1.5 5.86777
    endloop
  endfacet
  facet normal 1 0 0
    outer loop
      vertex 18.3631 1.5 5.86777
      vertex 18.3631 3 4.13223
      vertex 18.3631 3 5.86777
    endloop
  endfacet
  facet normal 0.62349 1.73601e-16 -0.781831
    outer loop
      vertex 19.72 3 6.94986
      vertex 19.72 1.5 6.94986
      vertex 18.3631 3 5.86777
    endloop
  endfacet
  facet normal 0.62349 1.73601e-16 -0.781831
    outer loop
      vertex 18.3631 3 5.86777
      vertex 19.72 1.5 6.94986
      vertex 18.3631 1.5 5.86777
    endloop
  endfacet
  facet normal 0.62349 -1.73601e-16 0.781831
    outer loop
      vertex 19.72 1.5 3.05014
      vertex 19.72 3 3.05014
      vertex 18.3631 3 4.13223
    endloop
  endfacet
  facet normal 0.62349 -1.73601e-16 0.781831
    outer loop
      vertex 18.3631 1.5 4.13223
      vertex 19.72 1.5 3.05014
      vertex 18.3631 3 4.13223
    endloop
  endfacet
  facet normal -0.222521 -2.16477e-16 0.974928
    outer loop
      vertex 21.412 1.5 3.43634
      vertex 21.412 3 3.43634
      vertex 19.72 3 3.05014
    endloop
  endfacet
  facet normal -0.222521 -2.16477e-16 0.974928
    outer loop
      vertex 19.72 1.5 3.05014
      vertex 21.412 1.5 3.43634
      vertex 19.72 3 3.05014
    endloop
  endfacet
  facet normal -0.900969 -9.63415e-17 0.433884
    outer loop
      vertex 22.165 3 5
      vertex 21.412 3 3.43634
      vertex 22.165 1.5 5
    endloop
  endfacet
  facet normal -0.900969 -9.63415e-17 0.433884
    outer loop
      vertex 22.165 1.5 5
      vertex 21.412 3 3.43634
      vertex 21.412 1.5 3.43634
    endloop
  endfacet
  facet normal -0.900969 9.63415e-17 -0.433884
    outer loop
      vertex 22.165 3 5
      vertex 22.165 1.5 5
      vertex 21.412 3 6.56366
    endloop
  endfacet
  facet normal -0.900969 9.63415e-17 -0.433884
    outer loop
      vertex 21.412 3 6.56366
      vertex 22.165 1.5 5
      vertex 21.412 1.5 6.56366
    endloop
  endfacet
  facet normal -0.222521 2.16477e-16 -0.974928
    outer loop
      vertex 21.412 3 6.56366
      vertex 21.412 1.5 6.56366
      vertex 19.72 3 6.94986
    endloop
  endfacet
  facet normal -0.222521 2.16477e-16 -0.974928
    outer loop
      vertex 19.72 3 6.94986
      vertex 21.412 1.5 6.56366
      vertex 19.72 1.5 6.94986
    endloop
  endfacet
  facet normal 0 -1 -2.22045e-16
    outer loop
      vertex 18.3631 3 5
      vertex 22.165 3 5
      vertex 21.412 3 6.56366
    endloop
  endfacet
  facet normal 0 -1 -2.22045e-16
    outer loop
      vertex 18.3631 3 5.86777
      vertex 18.3631 3 5
      vertex 19.72 3 6.94986
    endloop
  endfacet
  facet normal 0 -1 -2.22045e-16
    outer loop
      vertex 19.72 3 6.94986
      vertex 18.3631 3 5
      vertex 21.412 3 6.56366
    endloop
  endfacet
  facet normal -1 0 0
    outer loop
      vertex -20 -9 0
      vertex -20 -9 10
      vertex -20 18 0
    endloop
  endfacet
  facet normal -1 0 0
    outer loop
      vertex -20 18 0
      vertex -20 -9 10
      vertex -20 18 10
    endloop
  endfacet
  facet normal -0.951056 -0.309017 0
    outer loop
      vertex -20 -9 0
      vertex -19.809 -9.58778 0
      vertex -20 -9 10
    endloop
  endfacet
  facet normal -0.951056 -0.309017 0
    outer loop
      vertex -20 -9 10
      vertex -19.809 -9.58778 0
      vertex -19.809 -9.58778 10
    endloop
  endfacet
  facet normal 0 0 -1
    outer loop
      vertex -20 -9 0
      vertex -20 18 0
      vertex -19.809 -9.58778 0
    endloop
  endfacet
  facet normal 0 0 -1
    outer loop
      vertex -19.809 -9.58778 0
      vertex -20 18 0
      vertex -19.809 18.5878 0
    endloop
  endfacet
  facet normal 0 0 -1
    outer loop
      vertex -19.809 -9.58778 0
      vertex -19.809 18.5878 0
      vertex -19.309 18.9511 0
    endloop
  endfacet
  facet normal 0 0 -1
    outer loop
      vertex -19.809 -9.58778 0
      vertex -19.309 18.9511 0
      vertex -19 18.9511 0
    endloop
  endfacet
  facet normal 0 0 -1
    outer loop
      vertex -19 18.9511 0
      vertex -19 19 0
      vertex -17 19 0
    endloop
  endfacet
  facet normal 0 0 -1
    outer loop
      vertex -19 18.9511 0
      vertex -17 19 0
      vertex -19.809 -9.58778 0
    endloop
  endfacet
  facet normal 0 0 -1
    outer loop
      vertex -16 16 0
      vertex -17 19 0
      vertex -14 16 0
    endloop
  endfacet
  facet normal 0 0 -1
    outer loop
      vertex -16.309 15.9511 0
      vertex -17 19 0
      vertex -16 16 0
    endloop
  endfacet
  facet normal 0 0 -1
    outer loop
      vertex -16.809 15.5878 0
      vertex -17 19 0
      vertex -16.309 15.9511 0
    endloop
  endfacet
  facet normal 0 0 -1
    outer loop
      vertex -17 -6 0
      vertex -19.809 -9.58778 0
      vertex -17 15 0
    endloop
  endfacet
  facet normal 0 0 -1
    outer loop
      vertex -17 15 0
      vertex -17 19 0
      vertex -16.809 15.5878 0
    endloop
  endfacet
  facet normal 0 0 -1
    outer loop
      vertex -19.809 -9.58778 0
      vertex -17 19 0
      vertex -17 15 0
    endloop
  endfacet
  facet normal 0 0 -1
    outer loop
      vertex 68 16 0
      vertex 68.309 15.9511 0
      vertex 68 15.9511 0
    endloop
  endfacet
  facet normal 0 0 -1
    outer loop
      vertex -19.809 -9.58778 0
      vertex -17 -6 0
      vertex -16.809 -6.58778 0
    endloop
  endfacet
  facet normal 0 0 -1
    outer loop
      vertex -16.809 -6.58778 0
      vertex -16.309 -6.95106 0
      vertex -19.809 -9.58778 0
    endloop
  endfacet
  facet normal 0 0 -1
    outer loop
      vertex -16.309 -6.95106 0
      vertex -16 -6.95106 0
      vertex -19.809 -9.58778 0
    endloop
  endfacet
  facet normal 0 0 -1
    outer loop
      vertex -19.809 -9.58778 0
      vertex -16 -6.95106 0
      vertex -16 -7 0
    endloop
  endfacet
  facet normal 0 0 -1
    outer loop
      vertex -16 -7 0
      vertex 20.5 -7 0
      vertex -19.809 -9.58778 0
    endloop
  endfacet
  facet normal 0 0 -1
    outer loop
      vertex -19.809 -9.58778 0
      vertex 20.5 -7 0
      vertex 20.5 -8.5 0
    endloop
  endfacet
  facet normal 0 0 -1
    outer loop
      vertex -19.809 -9.58778 0
      vertex 20.5 -8.5 0
      vertex 30.5 -8.5 0
    endloop
  endfacet
  facet normal 0 0 -1
    outer loop
      vertex 30.5 -8.5 0
      vertex 30.5 -7 0
      vertex 68 -7 0
    endloop
  endfacet
  facet normal 0 0 -1
    outer loop
      vertex 30.5 -8.5 0
      vertex 72 -9 0
      vertex -19.809 -9.58778 0
    endloop
  endfacet
  facet normal 0 0 -1
    outer loop
      vertex -19.309 -9.95106 0
      vertex -19.809 -9.58778 0
      vertex -19 -9.95106 0
    endloop
  endfacet
  facet normal 0 0 -1
    outer loop
      vertex 68 -7 0
      vertex 68 -6.95106 0
      vertex 68.309 -6.95106 0
    endloop
  endfacet
  facet normal 0 0 -1
    outer loop
      vertex 68 -7 0
      vertex 72 -9 0
      vertex 30.5 -8.5 0
    endloop
  endfacet
  facet normal 0 0 -1
    outer loop
      vertex 68.309 -6.95106 0
      vertex 72 -9 0
      vertex 68 -7 0
    endloop
  endfacet
  facet normal 0 0 -1
    outer loop
      vertex 68.809 -6.58778 0
      vertex 72 -9 0
      vertex 68.309 -6.95106 0
    endloop
  endfacet
  facet normal 0 0 -1
    outer loop
      vertex 68.809 15.5878 0
      vertex 69 19 0
      vertex 69 15 0
    endloop
  endfacet
  facet normal 0 0 -1
    outer loop
      vertex 69 19 0
      vertex 68 16 0
      vertex 66 16 0
    endloop
  endfacet
  facet normal 0 0 -1
    outer loop
      vertex 68.309 15.9511 0
      vertex 68 16 0
      vertex 69 19 0
    endloop
  endfacet
  facet normal 0 0 -1
    outer loop
      vertex 68.309 15.9511 0
      vertex 69 19 0
      vertex 68.809 15.5878 0
    endloop
  endfacet
  facet normal 0 0 -1
    outer loop
      vertex 69 15 0
      vertex 69 19 0
      vertex 71 19 0
    endloop
  endfacet
  facet normal 0 0 -1
    outer loop
      vertex 69 15 0
      vertex 71 19 0
      vertex 69 -6 0
    endloop
  endfacet
  facet normal 0 0 -1
    outer loop
      vertex 69 -6 0
      vertex 71 19 0
      vertex 71 18.9511 0
    endloop
  endfacet
  facet normal 0 0 -1
    outer loop
      vertex 69 -6 0
      vertex 71 18.9511 0
      vertex 71.309 18.9511 0
    endloop
  endfacet
  facet normal 0 0 -1
    outer loop
      vertex 69 -6 0
      vertex 71.309 18.9511 0
      vertex 71.809 18.5878 0
    endloop
  endfacet
  facet normal 0 0 -1
    outer loop
      vertex 69 -6 0
      vertex 71.809 18.5878 0
      vertex 72 18 0
    endloop
  endfacet
  facet normal 0 0 -1
    outer loop
      vertex 69 -6 0
      vertex 72 18 0
      vertex 72 -9 0
    endloop
  endfacet
  facet normal 0 0 -1
    outer loop
      vertex 69 -6 0
      vertex 72 -9 0
      vertex 68.809 -6.58778 0
    endloop
  endfacet
  facet normal 0 0 -1
    outer loop
      vertex -19.809 -9.58778 0
      vertex 72 -9 0
      vertex 71.809 -9.58778 0
    endloop
  endfacet
  facet normal 0 0 -1
    outer loop
      vertex -19.809 -9.58778 0
      vertex 71.809 -9.58778 0
      vertex 71.309 -9.95106 0
    endloop
  endfacet
  facet normal 0 0 -1
    outer loop
      vertex -19.809 -9.58778 0
      vertex 71.309 -9.95106 0
      vertex 71 -9.95106 0
    endloop
  endfacet
  facet normal 0 0 -1
    outer loop
      vertex -19.809 -9.58778 0
      vertex 71 -9.95106 0
      vertex 71 -10 0
    endloop
  endfacet
  facet normal 0 0 -1
    outer loop
      vertex -19 -9.95106 0
      vertex 71 -10 0
      vertex -19 -10 0
    endloop
  endfacet
  facet normal 0 0 -1
    outer loop
      vertex -19.809 -9.58778 0
      vertex 71 -10 0
      vertex -19 -9.95106 0
    endloop
  endfacet
  facet normal 0 0 -1
    outer loop
      vertex -16.309 15.9511 0
      vertex -16 16 0
      vertex -16 15.9511 0
    endloop
  endfacet
  facet normal -0.951056 0.309017 0
    outer loop
      vertex -20 18 0
      vertex -20 18 10
      vertex -19.809 18.5878 0
    endloop
  endfacet
  facet normal -0.951056 0.309017 0
    outer loop
      vertex -19.809 18.5878 0
      vertex -20 18 10
      vertex -19.809 18.5878 10
    endloop
  endfacet
  facet normal 0 0 1
    outer loop
      vertex -20 18 10
      vertex -20 -9 10
      vertex -19.809 -9.58778 10
    endloop
  endfacet
  facet normal 0 0 1
    outer loop
      vertex -19 -9.95106 10
      vertex -20 18 10
      vertex -19.309 -9.95106 10
    endloop
  endfacet
  facet normal 0 0 1
    outer loop
      vertex -19.309 -9.95106 10
      vertex -20 18 10
      vertex -19.809 -9.58778 10
    endloop
  endfacet
  facet normal 0 0 1
    outer loop
      vertex -17 -6 10
      vertex -20 18 10
      vertex -19 -9.95106 10
    endloop
  endfacet
  facet normal 0 0 1
    outer loop
      vertex 71 -10 10
      vertex -19 -9.95106 10
      vertex -19 -10 10
    endloop
  endfacet
  facet normal 0 0 1
    outer loop
      vertex -17 -6 10
      vertex -17 15 10
      vertex -20 18 10
    endloop
  endfacet
  facet normal 0 0 1
    outer loop
      vertex 68 15.9511 10
      vertex 68.309 15.9511 10
      vertex 68 16 10
    endloop
  endfacet
  facet normal 0 0 1
    outer loop
      vertex 69 15 10
      vertex 69 -6 10
      vertex 72 -9 10
    endloop
  endfacet
  facet normal 0 0 1
    outer loop
      vertex 68 -7 10
      vertex 71 -10 10
      vertex 71 -9.95106 10
    endloop
  endfacet
  facet normal 0 0 1
    outer loop
      vertex 68 -7 10
      vertex 71.809 -9.58778 10
      vertex 72 -9 10
    endloop
  endfacet
  facet normal 0 0 1
    outer loop
      vertex 72 18 10
      vertex 66 16 10
      vertex 68 16 10
    endloop
  endfacet
  facet normal 0 0 1
    outer loop
      vertex 68 -7 10
      vertex 71.309 -9.95106 10
      vertex 71.809 -9.58778 10
    endloop
  endfacet
  facet normal 0 0 1
    outer loop
      vertex 72 18 10
      vertex 68 16 10
      vertex 68.309 15.9511 10
    endloop
  endfacet
  facet normal 0 0 1
    outer loop
      vertex 68 -7 10
      vertex 71 -9.95106 10
      vertex 71.309 -9.95106 10
    endloop
  endfacet
  facet normal 0 0 1
    outer loop
      vertex 72 18 10
      vertex 68.309 15.9511 10
      vertex 68.809 15.5878 10
    endloop
  endfacet
  facet normal 0 0 1
    outer loop
      vertex 72 18 10
      vertex 69 15 10
      vertex 72 -9 10
    endloop
  endfacet
  facet normal 0 0 1
    outer loop
      vertex 72 18 10
      vertex 68.809 15.5878 10
      vertex 69 15 10
    endloop
  endfacet
  facet normal 0 0 1
    outer loop
      vertex 69 -6 10
      vertex 68.809 -6.58778 10
      vertex 72 -9 10
    endloop
  endfacet
  facet normal 0 0 1
    outer loop
      vertex 68.809 -6.58778 10
      vertex 68.309 -6.95106 10
      vertex 72 -9 10
    endloop
  endfacet
  facet normal 0 0 1
    outer loop
      vertex 68.309 -6.95106 10
      vertex 68 -6.95106 10
      vertex 72 -9 10
    endloop
  endfacet
  facet normal 0 0 1
    outer loop
      vertex 68 -6.95106 10
      vertex 68 -7 10
      vertex 72 -9 10
    endloop
  endfacet
  facet normal 0 0 1
    outer loop
      vertex -16 -6.95106 10
      vertex -16.309 -6.95106 10
      vertex -16 -7 10
    endloop
  endfacet
  facet normal 0 0 1
    outer loop
      vertex 71 -10 10
      vertex 30.5 -8.5 10
      vertex -19 -9.95106 10
    endloop
  endfacet
  facet normal 0 0 1
    outer loop
      vertex 71 -10 10
      vertex 30.5 -7 10
      vertex 30.5 -8.5 10
    endloop
  endfacet
  facet normal 0 0 1
    outer loop
      vertex 30.5 -8.5 10
      vertex 20.5 -8.5 10
      vertex -19 -9.95106 10
    endloop
  endfacet
  facet normal 0 0 1
    outer loop
      vertex -16.809 15.5878 10
      vertex -16.309 15.9511 10
      vertex -20 18 10
    endloop
  endfacet
  facet normal 0 0 1
    outer loop
      vertex 20.5 -7 10
      vertex -16 -7 10
      vertex -19 -9.95106 10
    endloop
  endfacet
  facet normal 0 0 1
    outer loop
      vertex -16 -7 10
      vertex -16.309 -6.95106 10
      vertex -19 -9.95106 10
    endloop
  endfacet
  facet normal 0 0 1
    outer loop
      vertex -16.309 -6.95106 10
      vertex -16.809 -6.58778 10
      vertex -19 -9.95106 10
    endloop
  endfacet
  facet normal 0 0 1
    outer loop
      vertex -16.809 -6.58778 10
      vertex -17 -6 10
      vertex -19 -9.95106 10
    endloop
  endfacet
  facet normal 0 0 1
    outer loop
      vertex -16.809 15.5878 10
      vertex -20 18 10
      vertex -17 15 10
    endloop
  endfacet
  facet normal 0 0 1
    outer loop
      vertex -16 16 10
      vertex -14 16 10
      vertex -20 18 10
    endloop
  endfacet
  facet normal 0 0 1
    outer loop
      vertex -16 15.9511 10
      vertex -20 18 10
      vertex -16.309 15.9511 10
    endloop
  endfacet
  facet normal 0 0 1
    outer loop
      vertex -16 16 10
      vertex -20 18 10
      vertex -16 15.9511 10
    endloop
  endfacet
  facet normal 0 0 1
    outer loop
      vertex 20.5 -8.5 10
      vertex 20.5 -7 10
      vertex -19 -9.95106 10
    endloop
  endfacet
  facet normal 0 0 1
    outer loop
      vertex -19 18.9511 10
      vertex -20 18 10
      vertex -17 19 10
    endloop
  endfacet
  facet normal 0 0 1
    outer loop
      vertex -19 19 10
      vertex -19 18.9511 10
      vertex -17 19 10
    endloop
  endfacet
  facet normal 0 0 1
    outer loop
      vertex -19.809 18.5878 10
      vertex -20 18 10
      vertex -19.309 18.9511 10
    endloop
  endfacet
  facet normal 0 0 1
    outer loop
      vertex -19 18.9511 10
      vertex -19.309 18.9511 10
      vertex -20 18 10
    endloop
  endfacet
  facet normal 0 0 1
    outer loop
      vertex 69 19 10
      vertex 71 18.9511 10
      vertex 71 19 10
    endloop
  endfacet
  facet normal 0 0 1
    outer loop
      vertex 71 18.9511 10
      vertex 71.809 18.5878 10
      vertex 71.309 18.9511 10
    endloop
  endfacet
  facet normal 0 0 1
    outer loop
      vertex 69 19 10
      vertex 71.809 18.5878 10
      vertex 71 18.9511 10
    endloop
  endfacet
  facet normal 0 0 1
    outer loop
      vertex 69 19 10
      vertex 72 18 10
      vertex 71.809 18.5878 10
    endloop
  endfacet
  facet normal 0 0 1
    outer loop
      vertex 69 19 10
      vertex 66 16 10
      vertex 72 18 10
    endloop
  endfacet
  facet normal 0 0 1
    outer loop
      vertex 68 -7 10
      vertex 30.5 -7 10
      vertex 71 -10 10
    endloop
  endfacet
  facet normal 0 0 1
    outer loop
      vertex -14 16 10
      vertex -17 19 10
      vertex -20 18 10
    endloop
  endfacet
  facet normal -0.587786 -0.809016 0
    outer loop
      vertex -19.809 -9.58778 10
      vertex -19.809 -9.58778 0
      vertex -19.309 -9.95106 0
    endloop
  endfacet
  facet normal -0.587786 -0.809016 0
    outer loop
      vertex -19.309 -9.95106 10
      vertex -19.809 -9.58778 10
      vertex -19.309 -9.95106 0
    endloop
  endfacet
  facet normal 0 -1 0
    outer loop
      vertex -19.309 -9.95106 10
      vertex -19.309 -9.95106 0
      vertex -19 -9.95106 0
    endloop
  endfacet
  facet normal 0 -1 0
    outer loop
      vertex -19 -9.95106 10
      vertex -19.309 -9.95106 10
      vertex -19 -9.95106 0
    endloop
  endfacet
  facet normal -1 0 0
    outer loop
      vertex -19 -9.95106 10
      vertex -19 -9.95106 0
      vertex -19 -10 10
    endloop
  endfacet
  facet normal -1 0 0
    outer loop
      vertex -19 -10 10
      vertex -19 -9.95106 0
      vertex -19 -10 0
    endloop
  endfacet
  facet normal 0 -1 0
    outer loop
      vertex 23.6981 -10 5
      vertex -19 -10 0
      vertex 71 -10 0
    endloop
  endfacet
  facet normal 0 -1 0
    outer loop
      vertex 23.6981 -10 5
      vertex 23.6981 -10 5.86777
      vertex -19 -10 10
    endloop
  endfacet
  facet normal 0 -1 0
    outer loop
      vertex -19 -10 10
      vertex -19 -10 0
      vertex 23.6981 -10 5
    endloop
  endfacet
  facet normal 0 -1 0
    outer loop
      vertex 25.055 -10 6.94986
      vertex -19 -10 10
      vertex 23.6981 -10 5.86777
    endloop
  endfacet
  facet normal 0 -1 0
    outer loop
      vertex 71 -10 10
      vertex -19 -10 10
      vertex 25.055 -10 6.94986
    endloop
  endfacet
  facet normal 0 -1 0
    outer loop
      vertex 71 -10 10
      vertex 25.055 -10 6.94986
      vertex 26.747 -10 6.56366
    endloop
  endfacet
  facet normal 0 -1 0
    outer loop
      vertex 26.747 -10 6.56366
      vertex 71 -10 0
      vertex 71 -10 10
    endloop
  endfacet
  facet normal 0 -1 0
    outer loop
      vertex 27.5 -10 5
      vertex 23.6981 -10 5
      vertex 71 -10 0
    endloop
  endfacet
  facet normal 0 -1 0
    outer loop
      vertex 26.747 -10 6.56366
      vertex 27.5 -10 5
      vertex 71 -10 0
    endloop
  endfacet
  facet normal 1 0 0
    outer loop
      vertex 71 -9.95106 0
      vertex 71 -9.95106 10
      vertex 71 -10 10
    endloop
  endfacet
  facet normal 1 0 0
    outer loop
      vertex 71 -10 0
      vertex 71 -9.95106 0
      vertex 71 -10 10
    endloop
  endfacet
  facet normal 0 -1 0
    outer loop
      vertex 71 -9.95106 10
      vertex 71 -9.95106 0
      vertex 71.309 -9.95106 0
    endloop
  endfacet
  facet normal 0 -1 0
    outer loop
      vertex 71.309 -9.95106 10
      vertex 71 -9.95106 10
      vertex 71.309 -9.95106 0
    endloop
  endfacet
  facet normal 0.587786 -0.809016 0
    outer loop
      vertex 71.309 -9.95106 10
      vertex 71.309 -9.95106 0
      vertex 71.809 -9.58778 0
    endloop
  endfacet
  facet normal 0.587786 -0.809016 0
    outer loop
      vertex 71.809 -9.58778 10
      vertex 71.309 -9.95106 10
      vertex 71.809 -9.58778 0
    endloop
  endfacet
  facet normal 0.951056 -0.309017 0
    outer loop
      vertex 71.809 -9.58778 10
      vertex 71.809 -9.58778 0
      vertex 72 -9 0
    endloop
  endfacet
  facet normal 0.951056 -0.309017 0
    outer loop
      vertex 72 -9 10
      vertex 71.809 -9.58778 10
      vertex 72 -9 0
    endloop
  endfacet
  facet normal 1 0 0
    outer loop
      vertex 72 -9 10
      vertex 72 -9 0
      vertex 72 18 0
    endloop
  endfacet
  facet normal 1 0 0
    outer loop
      vertex 72 18 10
      vertex 72 -9 10
      vertex 72 18 0
    endloop
  endfacet
  facet normal 0.951056 0.309017 0
    outer loop
      vertex 72 18 0
      vertex 71.809 18.5878 0
      vertex 71.809 18.5878 10
    endloop
  endfacet
  facet normal 0.951056 0.309017 0
    outer loop
      vertex 72 18 10
      vertex 72 18 0
      vertex 71.809 18.5878 10
    endloop
  endfacet
  facet normal 0.587786 0.809016 0
    outer loop
      vertex 71.309 18.9511 0
      vertex 71.309 18.9511 10
      vertex 71.809 18.5878 0
    endloop
  endfacet
  facet normal 0.587786 0.809016 0
    outer loop
      vertex 71.809 18.5878 0
      vertex 71.309 18.9511 10
      vertex 71.809 18.5878 10
    endloop
  endfacet
  facet normal 0 1 0
    outer loop
      vertex 71 18.9511 0
      vertex 71 18.9511 10
      vertex 71.309 18.9511 0
    endloop
  endfacet
  facet normal 0 1 0
    outer loop
      vertex 71.309 18.9511 0
      vertex 71 18.9511 10
      vertex 71.309 18.9511 10
    endloop
  endfacet
  facet normal 1 0 0
    outer loop
      vertex 71 19 0
      vertex 71 19 10
      vertex 71 18.9511 10
    endloop
  endfacet
  facet normal 1 0 0
    outer loop
      vertex 71 18.9511 0
      vertex 71 19 0
      vertex 71 18.9511 10
    endloop
  endfacet
  facet normal 0 1 0
    outer loop
      vertex 69 19 0
      vertex 69 19 10
      vertex 71 19 0
    endloop
  endfacet
  facet normal 0 1 0
    outer loop
      vertex 71 19 0
      vertex 69 19 10
      vertex 71 19 10
    endloop
  endfacet
  facet normal -0.707107 0.707107 0
    outer loop
      vertex 69 19 10
      vertex 69 19 0
      vertex 66 16 10
    endloop
  endfacet
  facet normal -0.707107 0.707107 0
    outer loop
      vertex 66 16 10
      vertex 69 19 0
      vertex 66 16 0
    endloop
  endfacet
  facet normal 0 -1 0
    outer loop
      vertex 68 16 0
      vertex 68 16 10
      vertex 66 16 10
    endloop
  endfacet
  facet normal 0 -1 0
    outer loop
      vertex 66 16 0
      vertex 68 16 0
      vertex 66 16 10
    endloop
  endfacet
  facet normal -1 0 0
    outer loop
      vertex 68 15.9511 0
      vertex 68 15.9511 10
      vertex 68 16 0
    endloop
  endfacet
  facet normal -1 0 0
    outer loop
      vertex 68 16 0
      vertex 68 15.9511 10
      vertex 68 16 10
    endloop
  endfacet
  facet normal 0 -1 0
    outer loop
      vertex 68.309 15.9511 0
      vertex 68.309 15.9511 10
      vertex 68 15.9511 10
    endloop
  endfacet
  facet normal 0 -1 0
    outer loop
      vertex 68 15.9511 0
      vertex 68.309 15.9511 0
      vertex 68 15.9511 10
    endloop
  endfacet
  facet normal -0.587786 -0.809016 0
    outer loop
      vertex 68.809 15.5878 0
      vertex 68.809 15.5878 10
      vertex 68.309 15.9511 10
    endloop
  endfacet
  facet normal -0.587786 -0.809016 0
    outer loop
      vertex 68.309 15.9511 0
      vertex 68.809 15.5878 0
      vertex 68.309 15.9511 10
    endloop
  endfacet
  facet normal -0.951056 -0.309017 0
    outer loop
      vertex 69 15 10
      vertex 68.809 15.5878 10
      vertex 69 15 0
    endloop
  endfacet
  facet normal -0.951056 -0.309017 0
    outer loop
      vertex 69 15 0
      vertex 68.809 15.5878 10
      vertex 68.809 15.5878 0
    endloop
  endfacet
  facet normal -1 0 0
    outer loop
      vertex 69 15 10
      vertex 69 15 0
      vertex 69 -6 10
    endloop
  endfacet
  facet normal -1 0 0
    outer loop
      vertex 69 -6 10
      vertex 69 15 0
      vertex 69 -6 0
    endloop
  endfacet
  facet normal -0.951056 0.309017 0
    outer loop
      vertex 69 -6 10
      vertex 69 -6 0
      vertex 68.809 -6.58778 10
    endloop
  endfacet
  facet normal -0.951056 0.309017 0
    outer loop
      vertex 68.809 -6.58778 10
      vertex 69 -6 0
      vertex 68.809 -6.58778 0
    endloop
  endfacet
  facet normal -0.587786 0.809016 0
    outer loop
      vertex 68.809 -6.58778 10
      vertex 68.809 -6.58778 0
      vertex 68.309 -6.95106 10
    endloop
  endfacet
  facet normal -0.587786 0.809016 0
    outer loop
      vertex 68.309 -6.95106 10
      vertex 68.809 -6.58778 0
      vertex 68.309 -6.95106 0
    endloop
  endfacet
  facet normal 0 1 0
    outer loop
      vertex 68.309 -6.95106 10
      vertex 68.309 -6.95106 0
      vertex 68 -6.95106 10
    endloop
  endfacet
  facet normal 0 1 0
    outer loop
      vertex 68 -6.95106 10
      vertex 68.309 -6.95106 0
      vertex 68 -6.95106 0
    endloop
  endfacet
  facet normal -1 0 0
    outer loop
      vertex 68 -7 0
      vertex 68 -7 10
      vertex 68 -6.95106 0
    endloop
  endfacet
  facet normal -1 0 0
    outer loop
      vertex 68 -6.95106 0
      vertex 68 -7 10
      vertex 68 -6.95106 10
    endloop
  endfacet
  facet normal 0 1 0
    outer loop
      vertex 30.5 -7 0
      vertex 30.5 -7 10
      vertex 68 -7 0
    endloop
  endfacet
  facet normal 0 1 0
    outer loop
      vertex 68 -7 0
      vertex 30.5 -7 10
      vertex 68 -7 10
    endloop
  endfacet
  facet normal -1 0 0
    outer loop
      vertex 30.5 -7 10
      vertex 30.5 -7 0
      vertex 30.5 -8.5 10
    endloop
  endfacet
  facet normal -1 0 0
    outer loop
      vertex 30.5 -8.5 10
      vertex 30.5 -7 0
      vertex 30.5 -8.5 0
    endloop
  endfacet
  facet normal 0 1 0
    outer loop
      vertex 23.6981 -8.5 5.86777
      vertex 20.5 -8.5 10
      vertex 25.055 -8.5 6.94986
    endloop
  endfacet
  facet normal 0 1 0
    outer loop
      vertex 25.055 -8.5 3.05014
      vertex 30.5 -8.5 0
      vertex 20.5 -8.5 0
    endloop
  endfacet
  facet normal 0 1 0
    outer loop
      vertex 27.5 -8.5 5
      vertex 30.5 -8.5 0
      vertex 26.747 -8.5 3.43634
    endloop
  endfacet
  facet normal 0 1 0
    outer loop
      vertex 20.5 -8.5 10
      vertex 23.6981 -8.5 4.13223
      vertex 20.5 -8.5 0
    endloop
  endfacet
  facet normal 0 1 0
    outer loop
      vertex 23.6981 -8.5 4.13223
      vertex 25.055 -8.5 3.05014
      vertex 20.5 -8.5 0
    endloop
  endfacet
  facet normal 0 1 0
    outer loop
      vertex 30.5 -8.5 10
      vertex 30.5 -8.5 0
      vertex 27.5 -8.5 5
    endloop
  endfacet
  facet normal 0 1 0
    outer loop
      vertex 30.5 -8.5 10
      vertex 27.5 -8.5 5
      vertex 26.747 -8.5 6.56366
    endloop
  endfacet
  facet normal 0 1 0
    outer loop
      vertex 30.5 -8.5 10
      vertex 26.747 -8.5 6.56366
      vertex 20.5 -8.5 10
    endloop
  endfacet
  facet normal 0 1 0
    outer loop
      vertex 26.747 -8.5 6.56366
      vertex 25.055 -8.5 6.94986
      vertex 20.5 -8.5 10
    endloop
  endfacet
  facet normal 0 1 0
    outer loop
      vertex 20.5 -8.5 10
      vertex 23.6981 -8.5 5.86777
      vertex 23.6981 -8.5 4.13223
    endloop
  endfacet
  facet normal 0 1 0
    outer loop
      vertex 26.747 -8.5 3.43634
      vertex 30.5 -8.5 0
      vertex 25.055 -8.5 3.05014
    endloop
  endfacet
  facet normal 1 0 0
    outer loop
      vertex 20.5 -7 0
      vertex 20.5 -7 10
      vertex 20.5 -8.5 10
    endloop
  endfacet
  facet normal 1 0 0
    outer loop
      vertex 20.5 -8.5 0
      vertex 20.5 -7 0
      vertex 20.5 -8.5 10
    endloop
  endfacet
  facet normal 0 1 0
    outer loop
      vertex -16 -7 0
      vertex -16 -7 10
      vertex 20.5 -7 0
    endloop
  endfacet
  facet normal 0 1 0
    outer loop
      vertex 20.5 -7 0
      vertex -16 -7 10
      vertex 20.5 -7 10
    endloop
  endfacet
  facet normal 1 0 0
    outer loop
      vertex -16 -7 10
      vertex -16 -7 0
      vertex -16 -6.95106 0
    endloop
  endfacet
  facet normal 1 0 0
    outer loop
      vertex -16 -6.95106 10
      vertex -16 -7 10
      vertex -16 -6.95106 0
    endloop
  endfacet
  facet normal 0 1 0
    outer loop
      vertex -16 -6.95106 10
      vertex -16 -6.95106 0
      vertex -16.309 -6.95106 10
    endloop
  endfacet
  facet normal 0 1 0
    outer loop
      vertex -16.309 -6.95106 10
      vertex -16 -6.95106 0
      vertex -16.309 -6.95106 0
    endloop
  endfacet
  facet normal 0.587786 0.809016 0
    outer loop
      vertex -16.309 -6.95106 10
      vertex -16.309 -6.95106 0
      vertex -16.809 -6.58778 10
    endloop
  endfacet
  facet normal 0.587786 0.809016 0
    outer loop
      vertex -16.809 -6.58778 10
      vertex -16.309 -6.95106 0
      vertex -16.809 -6.58778 0
    endloop
  endfacet
  facet normal 0.951056 0.309017 0
    outer loop
      vertex -17 -6 10
      vertex -16.809 -6.58778 10
      vertex -16.809 -6.58778 0
    endloop
  endfacet
  facet normal 0.951056 0.309017 0
    outer loop
      vertex -17 -6 0
      vertex -17 -6 10
      vertex -16.809 -6.58778 0
    endloop
  endfacet
  facet normal 1 0 0
    outer loop
      vertex -17 15 0
      vertex -17 15 10
      vertex -17 -6 10
    endloop
  endfacet
  facet normal 1 0 0
    outer loop
      vertex -17 -6 0
      vertex -17 15 0
      vertex -17 -6 10
    endloop
  endfacet
  facet normal 0.951056 -0.309017 0
    outer loop
      vertex -16.809 15.5878 0
      vertex -16.809 15.5878 10
      vertex -17 15 10
    endloop
  endfacet
  facet normal 0.951056 -0.309017 0
    outer loop
      vertex -17 15 0
      vertex -16.809 15.5878 0
      vertex -17 15 10
    endloop
  endfacet
  facet normal 0.587786 -0.809016 0
    outer loop
      vertex -16.309 15.9511 0
      vertex -16.309 15.9511 10
      vertex -16.809 15.5878 10
    endloop
  endfacet
  facet normal 0.587786 -0.809016 0
    outer loop
      vertex -16.809 15.5878 0
      vertex -16.309 15.9511 0
      vertex -16.809 15.5878 10
    endloop
  endfacet
  facet normal 0 -1 0
    outer loop
      vertex -16 15.9511 0
      vertex -16 15.9511 10
      vertex -16.309 15.9511 10
    endloop
  endfacet
  facet normal 0 -1 0
    outer loop
      vertex -16.309 15.9511 0
      vertex -16 15.9511 0
      vertex -16.309 15.9511 10
    endloop
  endfacet
  facet normal 1 0 0
    outer loop
      vertex -16 15.9511 10
      vertex -16 15.9511 0
      vertex -16 16 0
    endloop
  endfacet
  facet normal 1 0 0
    outer loop
      vertex -16 16 10
      vertex -16 15.9511 10
      vertex -16 16 0
    endloop
  endfacet
  facet normal 0 -1 0
    outer loop
      vertex -14 16 0
      vertex -14 16 10
      vertex -16 16 10
    endloop
  endfacet
  facet normal 0 -1 0
    outer loop
      vertex -16 16 0
      vertex -14 16 0
      vertex -16 16 10
    endloop
  endfacet
  facet normal 0.707107 0.707107 0
    outer loop
      vertex -14 16 10
      vertex -14 16 0
      vertex -17 19 10
    endloop
  endfacet
  facet normal 0.707107 0.707107 0
    outer loop
      vertex -17 19 10
      vertex -14 16 0
      vertex -17 19 0
    endloop
  endfacet
  facet normal 0 1 0
    outer loop
      vertex -19 19 0
      vertex -19 19 10
      vertex -17 19 0
    endloop
  endfacet
  facet normal 0 1 0
    outer loop
      vertex -17 19 0
      vertex -19 19 10
      vertex -17 19 10
    endloop
  endfacet
  facet normal -1 0 0
    outer loop
      vertex -19 19 10
      vertex -19 19 0
      vertex -19 18.9511 10
    endloop
  endfacet
  facet normal -1 0 0
    outer loop
      vertex -19 18.9511 10
      vertex -19 19 0
      vertex -19 18.9511 0
    endloop
  endfacet
  facet normal 0 1 0
    outer loop
      vertex -19.309 18.9511 0
      vertex -19.309 18.9511 10
      vertex -19 18.9511 0
    endloop
  endfacet
  facet normal 0 1 0
    outer loop
      vertex -19 18.9511 0
      vertex -19.309 18.9511 10
      vertex -19 18.9511 10
    endloop
  endfacet
  facet normal -0.587786 0.809016 0
    outer loop
      vertex -19.809 18.5878 0
      vertex -19.809 18.5878 10
      vertex -19.309 18.9511 0
    endloop
  endfacet
  facet normal -0.587786 0.809016 0
    outer loop
      vertex -19.309 18.9511 0
      vertex -19.809 18.5878 10
      vertex -19.309 18.9511 10
    endloop
  endfacet
  facet normal 0 1 2.22045e-16
    outer loop
      vertex 26.747 -10 3.43634
      vertex 25.055 -10 3.05014
      vertex 27.5 -10 5
    endloop
  endfacet
  facet normal 0 1 2.22045e-16
    outer loop
      vertex 27.5 -10 5
      vertex 25.055 -10 3.05014
      vertex 23.6981 -10 4.13223
    endloop
  endfacet
  facet normal 0 1 2.22045e-16
    outer loop
      vertex 27.5 -10 5
      vertex 23.6981 -10 4.13223
      vertex 23.6981 -10 5
    endloop
  endfacet
  facet normal 1 0 0
    outer loop
      vertex 23.6981 -10 4.13223
      vertex 23.6981 -8.5 4.13223
      vertex 23.6981 -8.5 5.86777
    endloop
  endfacet
  facet normal 1 0 0
    outer loop
      vertex 23.6981 -10 5
      vertex 23.6981 -10 4.13223
      vertex 23.6981 -10 5.86777
    endloop
  endfacet
  facet normal 1 0 0
    outer loop
      vertex 23.6981 -10 5.86777
      vertex 23.6981 -10 4.13223
      vertex 23.6981 -8.5 5.86777
    endloop
  endfacet
  facet normal -0.900969 9.63415e-17 -0.433884
    outer loop
      vertex 27.5 -8.5 5
      vertex 27.5 -10 5
      vertex 26.747 -8.5 6.56366
    endloop
  endfacet
  facet normal -0.900969 9.63415e-17 -0.433884
    outer loop
      vertex 26.747 -8.5 6.56366
      vertex 27.5 -10 5
      vertex 26.747 -10 6.56366
    endloop
  endfacet
  facet normal -0.900969 -9.63415e-17 0.433884
    outer loop
      vertex 27.5 -8.5 5
      vertex 26.747 -8.5 3.43634
      vertex 27.5 -10 5
    endloop
  endfacet
  facet normal -0.900969 -9.63415e-17 0.433884
    outer loop
      vertex 27.5 -10 5
      vertex 26.747 -8.5 3.43634
      vertex 26.747 -10 3.43634
    endloop
  endfacet
  facet normal -0.222521 2.16477e-16 -0.974928
    outer loop
      vertex 26.747 -8.5 6.56366
      vertex 26.747 -10 6.56366
      vertex 25.055 -8.5 6.94986
    endloop
  endfacet
  facet normal -0.222521 2.16477e-16 -0.974928
    outer loop
      vertex 25.055 -8.5 6.94986
      vertex 26.747 -10 6.56366
      vertex 25.055 -10 6.94986
    endloop
  endfacet
  facet normal 0.62349 1.73601e-16 -0.781831
    outer loop
      vertex 25.055 -8.5 6.94986
      vertex 25.055 -10 6.94986
      vertex 23.6981 -8.5 5.86777
    endloop
  endfacet
  facet normal 0.62349 1.73601e-16 -0.781831
    outer loop
      vertex 23.6981 -8.5 5.86777
      vertex 25.055 -10 6.94986
      vertex 23.6981 -10 5.86777
    endloop
  endfacet
  facet normal 0.62349 -1.73601e-16 0.781831
    outer loop
      vertex 25.055 -10 3.05014
      vertex 25.055 -8.5 3.05014
      vertex 23.6981 -8.5 4.13223
    endloop
  endfacet
  facet normal 0.62349 -1.73601e-16 0.781831
    outer loop
      vertex 23.6981 -10 4.13223
      vertex 25.055 -10 3.05014
      vertex 23.6981 -8.5 4.13223
    endloop
  endfacet
  facet normal -0.222521 -2.16477e-16 0.974928
    outer loop
      vertex 26.747 -10 3.43634
      vertex 26.747 -8.5 3.43634
      vertex 25.055 -8.5 3.05014
    endloop
  endfacet
  facet normal -0.222521 -2.16477e-16 0.974928
    outer loop
      vertex 25.055 -10 3.05014
      vertex 26.747 -10 3.43634
      vertex 25.055 -8.5 3.05014
    endloop
  endfacet
endsolid OpenSCAD_Model
