solid OpenSCAD_Model
  facet normal -1 0 0
    outer loop
      vertex 0 0 0
      vertex 0 0 15
      vertex 0 26.25 0
    endloop
  endfacet
  facet normal -1 0 0
    outer loop
      vertex 0 26.25 0
      vertex 0 0 15
      vertex 0 26.25 15
    endloop
  endfacet
  facet normal 0 -1 0
    outer loop
      vertex 0 0 15
      vertex 0 0 0
      vertex 3 0 0
    endloop
  endfacet
  facet normal 0 -1 0
    outer loop
      vertex 3 0 15
      vertex 0 0 15
      vertex 3 0 0
    endloop
  endfacet
  facet normal 0 0 -1
    outer loop
      vertex 0 0 0
      vertex 0 26.25 0
      vertex 3 0 0
    endloop
  endfacet
  facet normal 0 0 -1
    outer loop
      vertex 3 23.25 0
      vertex 0 26.25 0
      vertex 39.33 26.25 0
    endloop
  endfacet
  facet normal 0 0 -1
    outer loop
      vertex 36.33 0 0
      vertex 39.33 26.25 0
      vertex 39.33 0 0
    endloop
  endfacet
  facet normal 0 0 -1
    outer loop
      vertex 36.33 3 0
      vertex 39.33 26.25 0
      vertex 36.33 0 0
    endloop
  endfacet
  facet normal 0 0 -1
    outer loop
      vertex 3 23.25 0
      vertex 39.33 26.25 0
      vertex 36.33 23.25 0
    endloop
  endfacet
  facet normal 0 0 -1
    outer loop
      vertex 33.33 3 0
      vertex 36.33 3 0
      vertex 36.33 0 0
    endloop
  endfacet
  facet normal 0 0 -1
    outer loop
      vertex 3 0 0
      vertex 0 26.25 0
      vertex 3 3 0
    endloop
  endfacet
  facet normal 0 0 -1
    outer loop
      vertex 0 26.25 0
      vertex 3 23.25 0
      vertex 3 3 0
    endloop
  endfacet
  facet normal 0 0 -1
    outer loop
      vertex 3 0 0
      vertex 3 3 0
      vertex 6 3 0
    endloop
  endfacet
  facet normal 0 0 -1
    outer loop
      vertex 36.33 23.25 0
      vertex 39.33 26.25 0
      vertex 36.33 3 0
    endloop
  endfacet
  facet normal 0 1 0
    outer loop
      vertex 0 26.25 0
      vertex 0 26.25 15
      vertex 39.33 26.25 0
    endloop
  endfacet
  facet normal 0 1 0
    outer loop
      vertex 39.33 26.25 0
      vertex 0 26.25 15
      vertex 39.33 26.25 15
    endloop
  endfacet
  facet normal 0 0 1
    outer loop
      vertex 0 26.25 15
      vertex 0 0 15
      vertex 3 0 15
    endloop
  endfacet
  facet normal 0 0 1
    outer loop
      vertex 3 3 15
      vertex 0 26.25 15
      vertex 3 0 15
    endloop
  endfacet
  facet normal 0 0 1
    outer loop
      vertex 6 3 15
      vertex 3 3 15
      vertex 3 0 15
    endloop
  endfacet
  facet normal 0 0 1
    outer loop
      vertex 33.33 3 15
      vertex 36.33 0 15
      vertex 36.33 3 15
    endloop
  endfacet
  facet normal 0 0 1
    outer loop
      vertex 36.33 23.25 15
      vertex 0 26.25 15
      vertex 3 23.25 15
    endloop
  endfacet
  facet normal 0 0 1
    outer loop
      vertex 39.33 26.25 15
      vertex 0 26.25 15
      vertex 36.33 23.25 15
    endloop
  endfacet
  facet normal 0 0 1
    outer loop
      vertex 39.33 0 15
      vertex 36.33 23.25 15
      vertex 36.33 3 15
    endloop
  endfacet
  facet normal 0 0 1
    outer loop
      vertex 39.33 0 15
      vertex 36.33 3 15
      vertex 36.33 0 15
    endloop
  endfacet
  facet normal 0 0 1
    outer loop
      vertex 39.33 26.25 15
      vertex 36.33 23.25 15
      vertex 39.33 0 15
    endloop
  endfacet
  facet normal 0 0 1
    outer loop
      vertex 3 3 15
      vertex 3 23.25 15
      vertex 0 26.25 15
    endloop
  endfacet
  facet normal 0.707107 -0.707107 0
    outer loop
      vertex 6 3 0
      vertex 6 3 15
      vertex 3 0 15
    endloop
  endfacet
  facet normal 0.707107 -0.707107 0
    outer loop
      vertex 3 0 0
      vertex 6 3 0
      vertex 3 0 15
    endloop
  endfacet
  facet normal 0 1 0
    outer loop
      vertex 6 3 15
      vertex 6 3 0
      vertex 3 3 15
    endloop
  endfacet
  facet normal 0 1 0
    outer loop
      vertex 3 3 15
      vertex 6 3 0
      vertex 3 3 0
    endloop
  endfacet
  facet normal 1 0 0
    outer loop
      vertex 3 23.25 0
      vertex 3 23.25 15
      vertex 3 3 15
    endloop
  endfacet
  facet normal 1 0 0
    outer loop
      vertex 3 3 0
      vertex 3 23.25 0
      vertex 3 3 15
    endloop
  endfacet
  facet normal 0 -1 0
    outer loop
      vertex 36.33 23.25 0
      vertex 36.33 23.25 15
      vertex 3 23.25 15
    endloop
  endfacet
  facet normal 0 -1 0
    outer loop
      vertex 3 23.25 0
      vertex 36.33 23.25 0
      vertex 3 23.25 15
    endloop
  endfacet
  facet normal -1 0 0
    outer loop
      vertex 36.33 23.25 15
      vertex 36.33 23.25 0
      vertex 36.33 3 15
    endloop
  endfacet
  facet normal -1 0 0
    outer loop
      vertex 36.33 3 15
      vertex 36.33 23.25 0
      vertex 36.33 3 0
    endloop
  endfacet
  facet normal 0 1 0
    outer loop
      vertex 36.33 3 15
      vertex 36.33 3 0
      vertex 33.33 3 15
    endloop
  endfacet
  facet normal 0 1 0
    outer loop
      vertex 33.33 3 15
      vertex 36.33 3 0
      vertex 33.33 3 0
    endloop
  endfacet
  facet normal -0.707107 -0.707107 0
    outer loop
      vertex 36.33 0 0
      vertex 36.33 0 15
      vertex 33.33 3 15
    endloop
  endfacet
  facet normal -0.707107 -0.707107 0
    outer loop
      vertex 33.33 3 0
      vertex 36.33 0 0
      vertex 33.33 3 15
    endloop
  endfacet
  facet normal 0 -1 0
    outer loop
      vertex 36.33 0 15
      vertex 36.33 0 0
      vertex 39.33 0 0
    endloop
  endfacet
  facet normal 0 -1 0
    outer loop
      vertex 39.33 0 15
      vertex 36.33 0 15
      vertex 39.33 0 0
    endloop
  endfacet
  facet normal 1 0 0
    outer loop
      vertex 39.33 0 15
      vertex 39.33 0 0
      vertex 39.33 26.25 0
    endloop
  endfacet
  facet normal 1 0 0
    outer loop
      vertex 39.33 26.25 15
      vertex 39.33 0 15
      vertex 39.33 26.25 0
    endloop
  endfacet
endsolid OpenSCAD_Model
